<svg xmlns="http://www.w3.org/2000/svg" viewBox="0 0 3000 2202" width="3000" height="2202"><g transform="translate(400.0 1933.3333333333333) rotate(0.0 872.463768115942 36.231884057971) scale(4.278513458216887 4.115155211309103)"><svg width="407.835" height="17.609" viewBox="0 0 407.835 17.609"><g fill="#231f20"><path d="m407.657 8.804-33.541 4.017-34.018 1.416-34.033.889-34.043.565-34.049.316-34.056.102-34.054-.102-34.05-.316-34.047-.565-34.036-.889-34.015-1.416L.178 8.804l33.541-4.016 34.018-1.417 34.033-.888 34.043-.565 34.049-.316 34.055-.102 34.055.102 34.05.316 34.047.565 34.036.889 34.015 1.416z"/><path d="m203.922 17.609-34.063-.102-34.06-.317-34.058-.565-34.05-.889-34.154-1.427L0 10.294V7.315l33.657-4.026 34.018-1.417 34.056-.889 34.058-.565 34.059-.316L203.913 0l34.063.102 34.06.316 34.058.565 34.05.889 34.154 1.427 33.536 4.016v2.979l-33.656 4.026-34.018 1.417-34.056.889-34.058.565-34.06.317-34.065.102zM33.835 11.324l33.958 1.414 34.013.888 34.033.565 34.039.316 34.045.102 34.046-.102 34.039-.317 34.033-.564 34.019-.888 33.937-1.413 21.046-2.52-21.042-2.52-33.957-1.414-34.013-.888-34.033-.565-34.039-.316L203.915 3l-34.047.102-34.039.316-34.033.565-34.019.888-33.936 1.413-21.046 2.52 21.042 2.52z"/></g></svg></g><g transform="translate(1863.768115942029 898.5507246376811) rotate(0.0 460.86956521739125 507.2463768115942) scale(2.894518423814568 2.8949857564632935)"><svg width="318.443" height="350.431" viewBox="0 0 318.443 350.431"><path d="m317.101 95.814-3.24 6.496-3.241 6.498-3.239 6.494-3.241 6.5-3.244 6.505-3.245 6.505-2.526 5.067-2.527 5.068-2.526 5.066-2.528 5.07-2.53 5.074-2.53 5.074-15.281 30.641-15.281 30.641-15.282 30.642-15.281 30.642-15.283 30.646-15.284 30.646-12.576-6.271-12.58-6.272-12.584-6.275-12.58-6.272-12.589-6.277-12.588-6.277-5.53-2.757-5.531-2.759-5.528-2.757-5.533-2.759-5.537-2.761-5.537-2.761-9.386-4.682-9.389-4.683-9.393-4.684-9.389-4.683-9.396-4.686-9.395-4.687-4.066-2.027-4.065-2.027-4.065-2.027-4.067-2.028-4.073-2.03-4.073-2.031 4.882-9.791 4.883-9.793 4.885-9.797 4.883-9.793 4.886-9.801 4.887-9.8 16.164-32.414 16.164-32.415 16.165-32.416 16.164-32.415 16.167-32.419 16.167-32.42 31.574 15.744 31.576 15.745 31.576 15.745 31.576 15.744 31.58 15.747z" fill="#ee4878"/><path d="M190.123 350.431.673 255.958 0 253.946 126.296.673 128.308 0l189.463 94.472.673 2.012-126.309 253.275-2.012.673zM3.354 253.943l186.765 93.134 124.97-250.59L128.312 3.354z" fill="#231f20"/><path d="m116.476 230.81 16.398-16.172 16.393-16.167 16.398-16.173 16.4-16.174 16.402-16.176 16.401-16.176-22.689 3.949-22.69 3.949-22.689 3.95-22.691 3.949-22.694 3.95-22.693 3.95-.273-.014-.271.008-.268.031-.265.057-.255.083-.246.11-1.956 6.795 1.215 7.317 2.086 7.124 2.585 6.966 2.952 6.821 3.26 6.681 3.543 6.535 3.836 6.365 4.167 6.152 4.589 5.84 5.251 5.241 6.664 2.354.233-.137.217-.161.2-.182.18-.199.164-.217z" fill="#231f20"/><path d="m114.837 233.349-6.664-2.354-.56-.353-5.371-5.375-4.652-5.926-4.167-6.152-3.878-6.432-3.577-6.594-3.29-6.739-2.98-6.882-2.648-7.141-2.126-7.3-1.215-7.317.038-.661 1.956-6.795.828-.954.798-.29 1.077-.129.225.007 135.98-23.668 1.311 2.545-99.595 98.253-.233.136-1.256.12zm-5.345-5.069 5.559 1.963.372-.501 94.977-93.67-131.756 22.895-.212-.011-.076.002-1.632 5.669 1.144 6.894 2.045 6.986 2.567 6.917 2.922 6.747 3.232 6.62 3.514 6.478 3.802 6.305 4.095 6.041 4.5 5.728 4.947 4.938z" fill="#231f20"/><path d="m297.651 134.812-2.526 5.067-2.527 5.068-2.526 5.066-2.528 5.07-2.53 5.074-2.53 5.074-4.938-8.627-4.939-8.629-4.941-8.632-4.939-8.63-4.942-8.635-4.943-8.636 7.464 3.56 7.467 3.561 7.469 3.561 7.466 3.561 7.472 3.563z" fill="#fff"/><path d="m281.182 165.976-29.642-51.789 1.948-2.099 44.809 21.369.697 2.023-15.167 30.419-2.644.076zm-24.655-49.114 25.865 45.19 13.235-26.544z" fill="#231f20"/><path d="m210.326 199.975-2.264-8.305-4.346-7.43-6.122-6.05-7.475-4.269-8.324-2.186-8.608.053-8.305 2.264-7.43 4.346-6.05 6.122-4.269 7.474-2.187 8.325.054 8.608 2.264 8.305 4.345 7.43 6.123 6.05 7.474 4.269 8.325 2.186 8.607-.053 8.305-2.264 7.431-4.346 6.05-6.122 4.269-7.474 2.186-8.325z" fill="#fff"/><path d="m173.54 238.667-.39-.049-8.324-2.186-.363-.148-7.474-4.269-.311-.236-6.123-6.05-.24-.31-4.345-7.43-.152-.363-2.264-8.305-.053-.385-.053-8.607.049-.39 2.186-8.325.148-.363 4.269-7.475.236-.31 6.05-6.123.31-.241 7.43-4.345.363-.152 8.305-2.264.385-.053 8.608-.053.39.049 8.325 2.186.363.148 7.474 4.269.311.236 6.122 6.05.24.31 4.345 7.43.152.363 2.264 8.305.053.385.053 8.607-.049.39-2.186 8.325-.148.363-4.269 7.474-.236.31-6.051 6.123-.31.241-7.43 4.346-.363.152-8.305 2.264-.385.053-8.608.054zm-7.761-5.086 7.941 2.085 8.213-.051 7.924-2.16 7.088-4.146 5.773-5.842 4.073-7.132 2.086-7.941-.051-8.213-2.16-7.925-4.146-7.088-5.842-5.773-7.132-4.074-7.942-2.085-8.213.051-7.924 2.161-7.088 4.145-5.773 5.842-4.073 7.132-2.085 7.941.051 8.213 2.16 7.925 4.146 7.088 5.842 5.773z" fill="#231f20"/><path d="m46.765 223.845.325 8.432-1.339 8.332-2.954 7.904-4.443 7.174-5.754 6.172-6.849 4.927-4.066-2.027-4.065-2.027-4.065-2.027-4.067-2.028-4.073-2.03-4.073-2.031 4.882-9.791 4.883-9.793 4.885-9.797 4.883-9.793 4.886-9.801 4.887-9.8 4.126 3.664 3.623 4.162 3.057 4.594 2.438 4.951 1.778 5.224z" fill="#fff"/><g fill="#231f20"><path d="M25.081 268.129.673 255.958 0 253.946l29.305-58.774 2.338-.452 4.262 3.8 3.74 4.316 3.154 4.762 2.512 5.129 1.829 5.41 1.123 5.649.325 8.433-.018.295-1.415 8.618-3.084 8.169-4.621 7.408-5.976 6.366-6.85 4.928-1.545.125zM3.354 253.943l22.255 11.097 5.995-4.313 5.553-5.955 4.287-6.923 2.85-7.625 1.292-8.037-.314-8.163-1.052-5.196-1.716-5.041-2.352-4.776-2.949-4.432-3.496-4.017-2.59-2.299zM176.868 77.887l-5.343 2.751-5.345 2.751-5.342 2.75-5.347 2.752-5.35 2.754-5.35 2.755-2.751-5.344-2.751-5.345-2.75-5.342-2.752-5.346-2.754-5.35-2.755-5.351 5.344-2.75 5.345-2.752 5.341-2.75 5.347-2.752 5.35-2.754 5.35-2.754 2.751 5.343 2.752 5.345 2.749 5.342 2.753 5.346 2.754 5.351z"/><path d="m145.478 95.733-2.02-.647-16.513-32.077.647-2.02 32.077-16.513 2.02.647L178.202 77.2l-.647 2.02zm-15.179-32.764 15.14 29.41 29.41-15.14-15.14-29.41-29.41 15.139zm-8.671 221.009-1.055 4.575-1.055 4.575-1.055 4.574-1.055 4.579-1.057 4.582-1.056 4.582-5.53-2.757-5.531-2.759-5.528-2.757-5.533-2.759-5.537-2.761-5.537-2.761.728-3.164.728-3.166.729-3.168.729-3.168.729-3.173.73-3.174 5.856 1.35 5.858 1.349 5.855 1.349 5.859 1.35 5.864 1.351z"/><path d="M114.625 312.788 81.43 296.234l-.792-1.679 4.373-19.012 1.799-1.126 35.156 8.1 1.125 1.799-6.333 27.467-2.131 1.005zm-30.799-18.712 30.435 15.178 5.568-24.15-32.231-7.426z"/></g><path d="m164.338 84.337-5.343 2.751-5.345 2.751-5.342 2.75-5.347 2.752-5.35 2.755-5.35 2.754-2.751-5.344-2.751-5.344-2.75-5.342-2.752-5.347-2.755-5.35-2.754-5.35 5.344-2.751 5.344-2.751 5.342-2.75 5.347-2.753 5.35-2.754 5.35-2.754 2.751 5.343 2.751 5.345 2.75 5.342 2.753 5.347 2.754 5.35z" fill="#fff"/><path d="m132.947 102.184-2.02-.647-16.512-32.078.647-2.02 32.077-16.512 2.02.647 16.513 32.077-.647 2.02-32.077 16.513zM117.768 69.42l15.139 29.41 29.41-15.139-15.14-29.41-29.41 15.139z" fill="#231f20"/></svg></g><g transform="translate(492.7536231884058 791.304347826087) rotate(0.0 924.6376811594204 589.8550724637681) scale(2.8970613263382474 2.898280123545065)"><svg width="638.328" height="407.038" viewBox="0 0 638.328 407.038"><path d="M9 28.38h127.874l3.699.312 3.594.931 3.385 1.522 3.082 2.069 2.69 2.557 2.222 2.974 2.965 4.759 2.964 4.757 2.965 4.758 2.967 4.762 2.969 4.765 2.969 4.765 2.424 3.244 2.935 2.791 3.362 2.256 3.694 1.66 3.92 1.016 4.035.341H505.11l3.625.474 3.377 1.399 2.898 2.227 2.227 2.899 1.4 3.376.473 3.625v312.919H23.721l-2.319-3.481-2.322-3.484-2.322-3.485-2.322-3.486-2.327-3.492-2.326-3.491-.131-59.372-.13-59.369-.131-59.372-.13-59.374-.131-59.376z" fill="#fff"/><path d="M519.11 407.038H23.721l-1.248-.668-13.939-20.919-.252-.828L7.5 28.383 9 26.88l128 .005 3.949.355 3.833 1.015 3.607 1.645 3.279 2.228 2.858 2.747 2.293 3.078 17.766 28.513 2.309 3.091 2.751 2.615 3.151 2.115 3.462 1.556 3.674.952 3.845.325 311.527.013 3.625.474.38.102 3.376 1.4.339.196 2.898 2.227.276.275 2.227 2.898.196.34 1.4 3.375.102.38.486 3.819v312.919l-1.5 1.5zm-494.586-3H517.61V92.716l-.436-3.331-1.248-3.01-1.987-2.586-2.586-1.987-3.01-1.249-3.331-.436-311.424-.005-4.285-.383-4.159-1.1-3.914-1.782-3.56-2.416-3.103-2.979-2.495-3.349-17.766-28.513-2.108-2.821-2.506-2.382-2.871-1.928-3.154-1.417-3.347-.867-3.51-.296H10.503l.778 354.283 13.243 19.875z" fill="#231f20"/><path d="M23.721 405.538H519.11l5.345-.54 5.127-1.602 4.701-2.599 4.087-3.486 3.303-4.235 2.386-4.813 15.367-40.875 15.366-40.876 15.368-40.878 15.366-40.876 15.369-40.883 15.369-40.882.575-2.819-.355-2.855-1.242-2.595-1.992-2.076-2.547-1.337-2.841-.453H132.261l-15.977 43.073-15.977 43.073-15.979 43.076-15.977 43.074-15.98 43.08-15.98 43.08-2.108 2.7-2.11 2.702-2.111 2.703-2.111 2.703-2.115 2.708z" fill="#fff"/><path d="M519.11 407.038H23.721l-1.182-2.423 12.527-16.04 95.789-258.239 1.406-.979h495.601l.236.019 2.842.454.461.153 2.547 1.337.385.29 1.992 2.076.271.391 1.242 2.596.136.462.355 2.855-.019.485-.641 3.047-92.265 245.408-2.547 5.07-3.513 4.453-4.334 3.658-4.979 2.717-5.424 1.663-5.495.548zm-492.315-3h492.239l5.118-.517 4.837-1.512 4.436-2.451 3.855-3.29 3.116-3.995 2.285-4.609 92.136-245.088.502-2.461-.295-2.368-1.033-2.158-1.656-1.726-2.113-1.109-2.481-.396H133.304L37.798 389.836l-.224.402-10.778 13.8z" fill="#231f20"/><path d="m23.721 405.538-.691-.011-.691-.031-.691-.053-.687-.074-.687-.094-.683-.114-4.895-1.468-4.431-2.54-3.714-3.507-2.783-4.283-1.703-4.815-.565-5.079V35.88l.254-1.942.75-1.809 1.193-1.553 1.552-1.193 1.809-.75L9 28.38l1.942.253 1.809.75 1.552 1.194 1.193 1.552.75 1.809.254 1.942v347.589l.149 1.643.498 1.569.885 1.386 1.224 1.1 1.453.777 1.575.461 1.639.126 1.632-.214 1.533-.596 1.318-.985 1.019-1.291.72-1.485 15.828-41.707 15.828-41.708 15.828-41.71 15.828-41.709 15.831-41.715 15.83-41.714.927-1.726 1.343-1.425 1.667-1.028 1.874-.564 1.957-.059 1.906.451 1.726.927 1.425 1.343 1.028 1.666.564 1.875.059 1.957-.451 1.905-15.827 41.706-15.828 41.706-15.828 41.708-15.827 41.707-15.83 41.712-15.829 41.713-1.949 3.966-2.689 3.506-3.341 2.891-3.86 2.148-4.217 1.316z" fill="#ee4878"/><path d="m23.698 407.038-2.164-.1-2.374-.34-5.209-1.604-4.716-2.751-3.942-3.78-2.938-4.6-1.78-5.15L0 383.47.013 35.685l.254-1.942.102-.38.75-1.81.196-.339 1.193-1.553.276-.275 1.552-1.193.34-.196 1.809-.75.38-.102 1.942-.254h.389l1.942.254.38.102 1.809.75.339.196 1.553 1.193.276.275 1.193 1.552.196.34.75 1.809.102.38.267 2.136v347.524l.128 1.413.389 1.226.67 1.048.937.843 1.155.618 1.276.373 1.328.103 1.297-.17 1.174-.457.997-.745.796-1.008.62-1.278 95.027-250.38.927-1.727.23-.32 1.343-1.424.304-.248 1.666-1.028.355-.16 1.875-.564.387-.063 1.957-.059.391.04 1.905.451.364.138 1.726.927.319.23 1.425 1.343.248.304 1.028 1.666.16.355.564 1.875.063.387.059 1.957-.04.392-.509 2.091L45.52 391.932l-2.105 4.217-2.897 3.728-3.593 3.067-4.143 2.27-4.515 1.376-4.569.447zm-3.766-3.341 1.876.254 1.85.086 4.16-.417 3.924-1.224 3.59-1.998 3.108-2.69 2.505-3.267 1.853-3.769 94.909-250.094.383-1.617-.047-1.561-.451-1.498-.821-1.331-1.137-1.072-1.378-.74-1.521-.36-1.561.047-1.497.451-1.331.821-1.071 1.136-.787 1.466-94.993 250.295-.892 1.76-1.019 1.291-.28.272-1.318.984-.354.196-1.882.686-1.943.222-1.943-.182-1.862-.577-1.748-.985-1.224-1.1-.261-.308-.885-1.386-.166-.354-.562-1.887-.155-1.778V35.977l-.215-1.648-.598-1.443-.952-1.239-1.24-.953-1.443-.599-1.551-.203-1.551.203-1.443.598-1.24.953-.953 1.24-.598 1.443-.215 1.648v347.41l.536 4.824 1.587 4.485 2.588 3.983 3.454 3.261 4.128 2.366 4.639 1.391z" fill="#231f20"/><path d="m179.21 108.756 4.786 3.682 4.784 3.68 4.785 3.681 4.789 3.684 4.793 3.687 4.793 3.686h-32.82l-.905-.179-.904-.179-.908-.18-.909-.18-.912-.181-.912-.181.091.179.09.177.09.178.093.182.093.182.093.182h-37.96v.01l-1.523.131-1.465.435-1.347.721-1.174.978-.948 1.198-.683 1.367-2.842 7.488-2.843 7.49-2.843 7.492-2.843 7.49-2.845 7.495-2.844 7.495-.164-5.835-.163-5.837-.163-5.834-.163-5.838-.164-5.843-.163-5.843-6.499 5.377-6.5 5.379-6.496 5.376-6.502 5.38-6.507 5.384-6.506 5.384 3.435-7.703 3.435-7.704 3.437-7.708 3.436-7.704 3.438-7.711 3.439-7.71-8.188 2.024-8.189 2.025-8.193 2.025-8.189 2.024-8.196 2.026-8.195 2.026 6.445-5.442 6.446-5.444 6.443-5.44 6.449-5.446 6.453-5.449 6.454-5.449-8.258-1.724-8.259-1.725-8.263-1.725-8.259-1.724-8.266-1.726-8.265-1.726 8.164-2.112 8.166-2.113 8.169-2.113 8.166-2.113 8.173-2.115 8.172-2.114-6.685-5.144-6.687-5.145-6.683-5.143-6.689-5.147-6.693-5.15-6.693-5.151 8.274 1.641 8.276 1.641 8.279 1.642 8.276 1.641 8.283 1.643 8.282 1.642-3.802-7.529-3.802-7.532-3.804-7.534L72 36.95l-3.805-7.537-3.805-7.537 6.739 5.068 6.742 5.068 6.738 5.066 6.744 5.07 6.748 5.074 6.749 5.074-.149-8.43-.148-8.433-.148-8.436-.149-8.433-.148-8.439-.148-8.439 3.879 7.486 3.881 7.488 3.882 7.491 3.881 7.488 3.883 7.494 3.884 7.493 3.519-7.663 3.521-7.664 3.522-7.668 3.521-7.665 3.523-7.67 3.524-7.67.236 8.431.237 8.433.236 8.435.237 8.433.237 8.439.237 8.439 6.498-5.377 6.5-5.379 6.496-5.375 6.502-5.381 6.507-5.384 6.507-5.384-3.435 7.703-3.436 7.704-3.437 7.708-3.436 7.705-3.438 7.71-3.438 7.71 8.187-2.024 8.19-2.024 8.192-2.025 8.19-2.025 8.195-2.026 8.196-2.026-6.445 5.444-6.447 5.445-6.443 5.443-6.449 5.447-6.453 5.45-6.453 5.451 8.257 1.724 8.26 1.725 8.262 1.725 8.26 1.725 8.265 1.725 8.266 1.726-8.164 2.112-8.167 2.113-8.169 2.114-8.166 2.113-8.172 2.114z" fill="#ee4878"/><path d="m109.462 181.179-2.902-.49-.894-31.956-36.64 30.319-2.326-1.767 19.37-43.437-46.17 11.413-1.328-2.602 36.339-30.685-46.558-9.721-.069-2.92 46.038-11.911-37.697-29.008 1.207-2.66 46.653 9.252-21.434-42.453 2.24-1.875 38.005 28.574-.836-47.539 2.832-.716 21.877 42.213L147.017 0l2.862.584 1.334 47.536 36.641-30.32 2.326 1.767-19.37 43.437 46.17-11.413 1.328 2.602-36.339 30.694 46.558 9.721.069 2.92-46.037 11.911 26.296 20.228-.915 2.689-33.112-.029-4.093-.811-.515.84-37.832.004-1.37.118-1.173.348-1.078.577-.936.78-.756.955-.58 1.161-17.033 44.879zm-3.339-36.718 2.456 1.114.768 27.453 14.431-38.001.849-1.628 1.164-1.419 1.426-1.148 1.628-.836 1.763-.492 1.523-.131.009.106.119-.12h36.906l.795-1.053 5.306 1.051h28.263l-25.235-19.411.539-2.641 42.794-11.072-43.285-9.038-.661-2.614 33.785-28.537-42.918 10.609-1.73-2.067 18.011-40.39-34.075 28.197-2.456-1.114-1.24-44.187-18.448 40.161-2.695.064-20.343-39.26.777 44.213-2.401 1.225-35.323-26.557L88.548 66.4l-1.631 2.147-43.387-8.604 35.054 26.974-.539 2.641L35.25 100.63l43.286 9.038.661 2.614-33.783 28.526L88.329 130.2l1.73 2.067-18.011 40.39 34.075-28.197z" fill="#231f20"/></svg></g><g transform="translate(1133.3333333333333 582.6086956521739) rotate(0.0 220.28985507246375 294.2028985507247) scale(2.885112175818736 2.890789737411626)"><svg width="152.708" height="203.545" viewBox="0 0 152.708 203.545"><g fill="#231f20"><path d="m120.915 1.489-19.904 2.415-19.903 2.415-19.904 2.415L41.3 11.149l-19.907 2.415L1.486 15.98 5.79 46.988l4.304 31.009 4.304 31.011 4.304 31.009 4.305 31.014 4.305 31.014h123.913l-5.051-33.424-5.052-33.424-5.051-33.425-5.052-33.425-5.052-33.429z"/><path d="M151.225 203.545H27.312l-1.486-1.294L0 16.186l1.305-1.695L120.734 0l1.664 1.265 30.31 200.556zm-122.607-3h120.863L119.65 3.154 3.181 17.285z"/></g></svg></g><g transform="translate(269.5652173913044 1185.5072463768115) rotate(0.0 243.4782608695652 324.63768115942037) scale(2.878231778865452 2.8932937132925476)"><svg width="169.186" height="224.407" viewBox="0 0 169.186 224.407"><path d="m167.783 91.993-3.948 10.404-3.949 10.408-3.95 10.411-3.949 10.407-3.952 10.415-3.952 10.415-3.501 9.228-3.503 9.231-3.503 9.234-3.503 9.232-3.505 9.237-3.505 9.238-4.922-5.341-4.924-5.342-4.921-5.339-4.925-5.344-4.929-5.347-4.929-5.347-2.496-2.707-2.498-2.71-2.499-2.711-2.5-2.711-2.503-2.716-2.504-2.715-8.62-9.354-8.623-9.356-8.626-9.359-8.623-9.356-8.629-9.363-8.629-9.362-4.274-4.64-4.274-4.637-4.273-4.639-4.278-4.643-4.28-4.645-4.281-4.646 12.895-11.882 12.898-11.886 12.903-11.889L52.698 29.98l12.908-11.893L78.513 6.193l.917-.845.915-.844.919-.848.922-.85.923-.851.924-.852 1.577 1.712 1.58 1.714 1.576 1.711 1.581 1.716 1.583 1.718 1.583 1.719 12.372 13.426 12.375 13.43 12.38 13.435 12.375 13.43 12.384 13.439z" fill="#fff"/><path d="M121.96 210.869 0 78.54l.087-2.12L83.016 0l2.12.086 83.75 90.89.299 1.549-44.72 117.86zM3.223 77.609l119.298 129.443 43.53-114.725L83.947 3.223z" fill="#231f20"/><path d="m78.625 29.64 2.207-2.032 59.953 65.063-2.207 2.033zM60.364 47.449l2.206-2.033 73.138 79.372-2.206 2.033zm-18.26 17.808 2.206-2.033 83.75 90.89-2.206 2.033z" fill="#231f20"/><path d="m144.083 154.453-1.514 3.993-1.514 3.991-1.514 3.993-1.514 3.993-1.517 4-1.517 4-1.274 3.357-1.276 3.362-1.276 3.362-1.277 3.362-1.278 3.369-1.279 3.368-.71 1.872-.712 1.873-.71 1.872-.712 1.875-.713 1.879-.713 1.879-.843 2.219-.845 2.222-.845 2.223-.844 2.223-.847 2.226-.846 2.227-4.078-2.96-4.077-2.96-4.077-2.959-4.078-2.961-4.085-2.965-4.085-2.965-2.496-1.811-2.498-1.812-2.499-1.812-2.5-1.813-2.503-1.816-2.504-1.816-12.708-9.222-12.712-9.224-12.716-9.228-12.712-9.224-12.721-9.231-12.721-9.231 4.088-5.632 4.089-5.634 4.087-5.63 4.09-5.636 4.093-5.639 4.093-5.639 2.855-3.935 2.855-3.933 2.854-3.934 2.856-3.935 2.86-3.942 2.86-3.941 5.765 4.184 5.767 4.186 5.764 4.183 5.769 4.187 5.772 4.19 5.773 4.19 2.496 1.81 2.498 1.812 2.499 1.813 2.5 1.813 2.504 1.816 2.503 1.816 8.424 6.113 8.426 6.115 8.429 6.118 8.427 6.115 8.432 6.119z" fill="#fff"/><g fill="#231f20"><path d="M117.112 224.407 1.342 140.396l-.333-2.095 41.68-57.429 2.095-.333 100.18 72.7.521 1.746-26.09 68.741zM4.318 138.85l112.969 81.978 24.986-65.834-98.037-71.146z"/><path d="m63.476 153.67.783-1.717.301-1.86-.178-1.877-.488-1.824-.623-1.783-.636-1.78-.81-1.695-1.234-1.411-1.601-.974-1.81-.502-1.875-.11-1.875.175-.401-1.869-.301-1.948-.3-1.949-.301-1.949-.303-1.95-.303-1.954.181-.13.251-.042.25-.037.254-.038.257-.038.259-.04 2.331-.711 1.912-1.495 1.18-2.125.536-2.379.154-2.44.013-2.44-3.627-6.547-7.6-.834-6.274 4.502-3.173 7.131-.805 7.803.669 7.829 1.41 6.62 2.354 6.337 3.743 5.609 5.54 3.773 6.659.349z"/><path d="m57.916 158.849-6.659-.349-.766-.258-5.54-3.773-.403-.407-3.901-5.919-2.416-6.547-1.437-6.805-.67-7.829.003-.282.805-7.802.122-.456 3.173-7.132.496-.609 6.274-4.501 1.038-.272 7.599.834 1.148.764 3.628 6.547.188.736-.014 2.439-.19 2.761-.537 2.379-.152.398-1.18 2.125-.387.454-1.912 1.496-.487.253-2.523.754 1.397 8.849.778-.056 2.188.163 1.809.501.379.164 1.602.974.35.294 1.234 1.411.225.341.868 1.837 1.296 3.68.533 2.071.178 1.877-.013.381-.301 1.86-.116.383-.783 1.716-.529.623-5.481 3.681-.915.253zm-6.083-3.323 5.74.301 4.713-3.166.523-1.146.238-1.471-.148-1.561-.441-1.649-1.211-3.427-.688-1.44-.947-1.082-1.226-.745-1.455-.404-1.603-.095-1.761.165-1.606-1.179-.4-1.869-1.524-9.834.61-1.451.182-.13.625-.259 1.183-.182 1.961-.598 1.453-1.136.928-1.671.463-2.052.146-2.321.009-1.96-3.062-5.525-6.256-.687-5.476 3.929-2.911 6.542-.767 7.424.65 7.595 1.367 6.421 2.255 6.07 3.483 5.22 4.952 3.373zm54.81 8.515-.372-2.847-1.1-2.651-1.749-2.277-2.276-1.749-2.652-1.099-2.846-.372-2.847.372-2.652 1.1-2.276 1.749-1.749 2.276-1.099 2.651-.372 2.847.372 2.847 1.099 2.652 1.749 2.276 2.277 1.749 2.651 1.099 2.847.372 2.846-.372 2.652-1.1 2.276-1.749 1.749-2.276 1.1-2.651z"/><path d="M95.842 176.523h-.389l-2.847-.372-.38-.102-2.652-1.1-.339-.196-2.276-1.749-.276-.275-1.749-2.276-.196-.34-1.099-2.652-.102-.38-.372-2.847v-.389l.372-2.847.102-.38 1.099-2.651.196-.34 1.749-2.276.275-.275 2.276-1.749.34-.196 2.652-1.099.38-.102 2.847-.373h.389l2.847.373.38.102 2.652 1.099.339.196 2.276 1.749.276.275 1.749 2.276.196.34 1.099 2.652.102.38.372 2.847v.389l-.372 2.847-.102.38-1.099 2.651-.196.34-1.749 2.276-.275.275-2.276 1.749-.34.196-2.652 1.1-.38.102zm-2.65-3.321 2.455.321 2.456-.321 2.286-.948 1.963-1.509 1.509-1.964.947-2.285.321-2.456-.321-2.456-.948-2.286-1.509-1.964-1.964-1.508-2.286-.948-2.455-.321-2.456.321-2.286.948-1.963 1.509-1.509 1.964-.947 2.285-.321 2.456.321 2.456.948 2.286 1.509 1.964 1.964 1.508zm41.801 5.221-1.274 3.357-1.276 3.362-1.276 3.362-1.277 3.362-1.278 3.369-1.279 3.368-2.455-.727-2.22-1.277-1.866-1.753-1.413-2.135-.879-2.405-.297-2.543.373-2.847 1.101-2.651 1.751-2.274 2.277-1.748 2.652-1.098 2.846-.372 1.017.046 1.007.139.989.231.964.324.928.412z"/><path d="m126.908 200.041-2.778-.864-2.498-1.484-2.09-2.019-1.571-2.448-.961-2.746-.296-2.543.003-.369.373-2.846.102-.38 1.101-2.651.197-.34 1.751-2.275.275-.275 2.277-1.748.339-.196 2.652-1.099.38-.102 3.108-.383 1.153.059 1.145.164 1.125.271 1.094.375 1.054.476.885.498.667 1.84-7.66 20.18-1.828.906zm-1.435-3.553.952.281 6.697-17.641-.486-.216-.83-.279-.852-.2-.87-.12-.816-.037-2.519.329-2.286.947-1.965 1.508-1.51 1.963-.949 2.285-.323 2.465.254 2.184.758 2.073 1.219 1.842 1.611 1.514z"/></g></svg></g><g transform="translate(1159.4202898550725 1342.0289855072463) rotate(0.0 330.4347826086956 255.072463768116) scale(2.9075027726482032 2.886790334468285)"><svg width="227.298" height="176.717" viewBox="0 0 227.298 176.717"><path d="M112.61 1.496 87.533 3.231 63.039 8.828 40.073 18.97 20.292 34.373 6.425 55.195 1.479 79.684l3.066 18.211 11.387 14.327 17.058 7.086 18.336 2.897 18.464 2.077 17.777 5.041 11.519 8.834 10.581 9.988 10.829 9.718 11.725 8.601 13.066 6.332 14.28 2.44 18.221-2.862 16.622-8.015 13.776-12.286 10.004-15.516 5.818-17.53 1.821-18.399-5.319-26.777-13.508-23.806-18.932-19.808-22.768-15.256-25.536-9.933-27.153-3.551zm1.043 122.348-4.373.861-4.326-2.075-4.002-2.668-3.86-2.88-3.815-2.937-3.884-2.823-4.985-1.783-5.235-.949-5.247-.914-5.14-1.361-4.479-2.765-1.002-5.012 3.393-5.261 5.672-2.824 6.279-1.041 6.369.167 6.261 1.186 5.939 2.294 5.44 3.4 4.821 4.231 3.983 5.026 2.828 5.748 1.104 6.295-1.74 6.083z" fill="#ee4878"/><path d="m159.799 176.718-.486-.003-14.28-2.44-.402-.129-13.299-6.473-11.84-8.694-10.829-9.718-10.553-9.96-11.23-8.612-17.382-4.93-18.341-2.063-18.743-3.002-17.058-7.086-.599-.452L3.37 98.829l-.305-.684L0 79.933l.009-.546 4.946-24.489.222-.535 13.867-20.82.327-.352 19.781-15.403.316-.188L62.704 7.366l24.725-5.631L112.506 0l.298.009 27.154 3.551.349.089 25.827 10.084 23.018 15.465 18.932 19.808.22.296 13.508 23.807.167.448 5.319 26.776.021.44-1.89 18.724-5.98 17.87-10.004 15.517-.262.307-13.775 12.286-.347.231-16.622 8.015-.419.131-18.22 2.862zm-14.05-5.365 13.828 2.363 17.759-2.79 16.233-7.828 13.466-12.01 9.791-15.186 5.705-17.191 1.782-18.012-5.229-26.32-13.297-23.435-18.69-19.555-22.495-15.072-25.213-9.807-26.825-3.508-24.811 1.717-24.24 5.539-22.665 10.01-19.443 15.14L7.837 55.781 3.005 79.709 5.96 97.264l10.906 13.721 16.535 6.869 18.159 2.869 18.639 2.115 17.777 5.042.504.252 11.635 8.933 10.581 9.988 10.746 9.644 11.555 8.477 12.752 6.18zm-36.179-45.176-.938-.119-4.509-2.179-4.002-2.668-3.925-2.926-3.833-2.95-3.677-2.672-4.666-1.668-10.476-1.867-5.14-1.36-.404-.174-4.479-2.765-.683-.982-1.002-5.012.21-1.107 3.393-5.261.592-.53 5.672-2.823.423-.137 6.564-1.061 6.609.193 6.522 1.26 6.193 2.421 5.635 3.544 5.007 4.426 4.154 5.296 2.827 5.748.132.403 1.104 6.295-.035.672-1.74 6.083-1.152 1.059-4.374.861zm-3.872-4.853 3.781 1.813 2.984-.587 1.393-4.87-1.007-5.745-2.662-5.411-3.799-4.794-4.627-4.061-5.216-3.26-5.678-2.193-6.009-1.138-6.105-.16-5.916.98-5.102 2.54-2.84 4.404.755 3.776 3.735 2.305 4.862 1.287 10.665 1.917 4.985 1.783.377.199 3.884 2.823 3.848 2.961 3.842 2.867 3.849 2.563z" fill="#231f20"/><path d="m68.708 51.583-.609-4.66-1.8-4.341-2.863-3.727-3.727-2.863-4.341-1.8-4.66-.609-4.66.61-4.341 1.799-3.727 2.864-2.863 3.726-1.8 4.341-.609 4.66.609 4.661 1.8 4.341 2.864 3.727 3.726 2.863 4.341 1.799 4.66.609 4.661-.609 4.341-1.8 3.726-2.863 2.863-3.726 1.8-4.341z" fill="#fff"/><path d="M50.903 71.071h-.389l-4.66-.609-.38-.102-4.341-1.8-.339-.196-3.727-2.863-.276-.275-2.863-3.727-.196-.34-1.8-4.341-.102-.38-.609-4.661v-.389l.609-4.66.102-.38 1.8-4.341.196-.34 2.863-3.727.276-.275 3.727-2.863.339-.196 4.341-1.8.38-.102 4.66-.609h.389l4.66.609.38.102 4.341 1.799.339.196 3.727 2.863.275.275 2.864 3.727.196.34 1.8 4.341.102.38.609 4.66v.389l-.609 4.66-.102.38-1.8 4.341-.196.34-2.863 3.727-.276.275-3.727 2.863-.339.196-4.341 1.8-.38.102-4.66.609zm-4.463-3.558 4.269.558 4.269-.558 3.975-1.648 3.414-2.623 2.623-3.414 1.648-3.976.558-4.269-.558-4.269-1.648-3.975-2.624-3.414-3.414-2.623-3.975-1.648-4.269-.558-4.269.558-3.975 1.648-3.414 2.623-2.623 3.414-1.648 3.975-.558 4.269.558 4.27 1.648 3.975 2.623 3.414 3.414 2.623 3.975 1.648z" fill="#231f20"/><path d="m126.697 36.975-.61-4.661-1.799-4.341-2.864-3.726-3.726-2.864-4.341-1.799-4.66-.609-4.661.609-4.341 1.8-3.727 2.863-2.863 3.727-1.799 4.341-.609 4.66.609 4.66 1.8 4.341 2.863 3.727 3.726 2.863 4.341 1.8 4.661.609 4.66-.609 4.341-1.8 3.727-2.864 2.863-3.726 1.799-4.341z" fill="#fff"/><path d="M108.891 56.462h-.389l-4.66-.609-.38-.102-4.341-1.799-.339-.196-3.727-2.863-.275-.275-2.863-3.727-.196-.339-1.8-4.341-.102-.38-.609-4.66v-.389l.609-4.66.102-.38 1.8-4.341.196-.34 2.863-3.727.276-.275 3.727-2.863.339-.196 4.341-1.8.38-.102 4.66-.609h.389l4.66.609.38.102 4.341 1.8.339.196 3.727 2.863.276.275 2.863 3.727.196.34 1.8 4.341.102.38.609 4.661v.389l-.609 4.66-.102.38-1.8 4.341-.196.34-2.863 3.727-.276.275-3.727 2.863-.339.196-4.341 1.8-.38.102-4.66.609zm-4.464-3.558 4.269.558 4.269-.558 3.975-1.648 3.414-2.623 2.623-3.414 1.648-3.975.558-4.269-.558-4.27-1.648-3.975-2.623-3.414-3.414-2.623-3.975-1.648-4.269-.558-4.269.558-3.975 1.648-3.414 2.623-2.623 3.414-1.648 3.976-.558 4.269.558 4.269 1.648 3.975 2.623 3.414 3.414 2.623z" fill="#231f20"/><path d="m182.523 61.684-.61-4.66-1.799-4.341-2.864-3.727-3.726-2.863-4.341-1.8-4.66-.609-4.661.609-4.341 1.8-3.727 2.864-2.863 3.726-1.799 4.341-.609 4.66.609 4.661 1.8 4.341 2.863 3.726 3.726 2.863 4.341 1.8 4.661.609 4.66-.609 4.341-1.8 3.727-2.863 2.863-3.727 1.8-4.341z" fill="#fff"/><path d="M164.717 81.172h-.389l-4.66-.609-.38-.102-4.341-1.799-.339-.196-3.727-2.863-.276-.275-2.863-3.727-.196-.34-1.8-4.341-.102-.38-.609-4.66v-.389l.609-4.66.102-.38 1.8-4.341.196-.34 2.863-3.726.276-.275 3.727-2.863.339-.196 4.341-1.8.38-.102 4.66-.609h.389l4.66.609.38.102 4.341 1.8.339.196 3.726 2.863.276.275 2.864 3.727.196.34 1.8 4.341.102.38.609 4.661v.389l-.609 4.66-.102.38-1.8 4.341-.196.34-2.863 3.727-.276.275-3.727 2.863-.339.196-4.341 1.8-.38.102-4.66.609zm-4.464-3.558 4.269.558 4.269-.558 3.975-1.648 3.414-2.623 2.623-3.414 1.648-3.975.558-4.269-.558-4.27-1.648-3.975-2.623-3.414-3.414-2.623-3.975-1.648-4.269-.558-4.269.558-3.975 1.649-3.414 2.623-2.623 3.414-1.648 3.975-.558 4.269.558 4.269 1.648 3.975 2.623 3.414 3.414 2.623z" fill="#231f20"/><path d="m204.638 116.84-.61-4.66-1.799-4.342-2.864-3.726-3.726-2.863-4.341-1.8-4.66-.609-4.661.609-4.341 1.8-3.727 2.863-2.863 3.727-1.799 4.341-.609 4.66.609 4.66 1.8 4.342 2.863 3.726 3.726 2.863 4.341 1.8 4.661.609 4.66-.609 4.341-1.8 3.727-2.863 2.863-3.727 1.8-4.341z" fill="#fff"/><path d="M186.832 136.327h-.389l-4.66-.609-.38-.102-4.341-1.799-.339-.196-3.727-2.863-.275-.275-2.864-3.727-.196-.34-1.8-4.341-.102-.38-.609-4.66v-.389l.609-4.66.102-.38 1.8-4.341.196-.34 2.863-3.727.276-.275 3.727-2.863.339-.196 4.341-1.8.38-.102 4.66-.609h.389l4.66.609.38.102 4.341 1.8.339.196 3.726 2.863.276.275 2.864 3.727.196.34 1.8 4.341.102.38.609 4.661v.389l-.609 4.66-.102.38-1.8 4.341-.196.34-2.863 3.727-.276.275-3.727 2.863-.339.196-4.341 1.8-.38.102-4.66.609zm-4.464-3.558 4.269.558 4.269-.558 3.975-1.648 3.414-2.623 2.623-3.414 1.648-3.975.558-4.269-.558-4.27-1.648-3.975-2.623-3.414-3.414-2.623-3.975-1.648-4.269-.558-4.269.558-3.975 1.648-3.414 2.623-2.623 3.414-1.648 3.976-.558 4.269.558 4.269 1.648 3.975 2.624 3.414 3.414 2.623 3.975 1.648z" fill="#231f20"/></svg></g><g transform="translate(875.3623188405797 231.8840579710145) rotate(0.0 311.59420289855075 311.59420289855075) scale(2.886695134851292 2.886695134851292)"><svg width="215.883" height="215.883" viewBox="0 0 215.883 215.883"><path d="m214.584 136.516-22.535 13.01-22.535 13.011-22.534 13.01-22.536 13.011-22.539 13.013-22.538 13.013-13.011-22.535-13.01-22.535-13.01-22.534-13.011-22.536-13.013-22.539L1.299 79.367l22.535-13.011 22.534-13.01 22.535-13.01 22.536-13.011 22.538-13.013 22.539-13.013 13.01 22.535 13.011 22.534 13.01 22.535 13.011 22.536 13.013 22.538z" fill="#fff"/><g fill="#231f20"><path d="m80.117 215.882-2.049-.549L0 80.117l.549-2.049L135.766 0l2.049.549 78.068 135.217-.549 2.049zM3.348 79.916l76.568 132.619 132.619-76.567-76.568-132.62z"/><path d="m33.258 87.844 82.07-47.391 1.5 2.598-82.07 47.39zm14.495 25.106 38.204-22.06 1.5 2.598-38.204 22.06zm13.342 23.109 57.262-33.066 1.5 2.598-57.262 33.066z"/></g></svg></g><g transform="translate(1243.4782608695652 556.5217391304348) rotate(0.0 442.0289855072464 307.24637681159425) scale(2.8903062445303322 2.8911455734754306)"><svg width="305.87" height="212.543" viewBox="0 0 305.87 212.543"><path d="M304.37 1.5H1.5v209.543h302.87V36.427z" fill="#fff"/><path d="M304.37 212.543H1.5l-1.5-1.5V1.5L1.5 0h302.87l1.5 1.5v209.543zm-301.37-3h299.87V3H3z" fill="#231f20"/><path d="m78.673 108.113.517-3.034 1.509-2.683 2.157-2.208 2.457-1.879 2.527-1.788 2.302-2.037 1.495-2.673.489-3.03-.035-3.081.083-3.076.814-2.954 1.808-2.472 2.916-2.162 3.47-1.031 3.619.27 3.516.964 3.54.822 3.549-.526 4.345-1.381 4.551-.363 4.513.667 4.016 2.109 2.108 3.948-.585 4.494-1.061 3.191-.92 3.231-.621 3.298.051 3.345 1.154 3.129 1.896 2.768 1.436 4.132-.216 4.412-1.322 4.22-2.361 3.734-3.435 2.76-4.241 1.173-4.075-.286-3.907-1.207-3.694-1.772-3.603-1.952-3.785-1.522-3.873.755-4.77 2.111-5.199.634-5.17-.796-4.482-2.649-2.722-4.43z" fill="#ee4878"/><path d="m124.609 125.898-4.412-.349-4.113-1.287-3.695-1.773-3.592-1.945-3.295-1.324-3.272.637-4.615 2.042-.425.117-5.199.634-.41-.006-5.169-.796-.535-.191-4.482-2.648-.515-.506-2.722-4.431-.206-.567-.761-5.175.005-.47.517-3.033.171-.483 1.508-2.683.235-.313 2.319-2.351 2.457-1.879 2.505-1.773 2.051-1.815 1.241-2.219.426-2.641-.033-2.952.137-3.492.814-2.953.235-.487 1.808-2.473.318-.32 2.917-2.162.466-.233 3.47-1.031.538-.058 3.904.319 3.517.964 3.204.743 3.148-.466 4.565-1.411 4.551-.362.338.011 4.513.667.478.156 4.016 2.109.626.622 2.108 3.948.164.9-.649 4.774-1.061 3.19-.882 3.104-.581 3.082.045 2.937 1.001 2.714 1.791 2.614.179.355 1.436 4.132.082.566-.283 4.788-1.322 4.22-.164.354-2.361 3.734-.328.368-3.435 2.759-.54.276-4.241 1.173-.505.05zm-3.692-3.266 3.646.256 3.695-1.022 2.999-2.409 2.123-3.357 1.206-3.849.192-3.93-1.275-3.667-1.952-2.931-1.154-3.129-.093-.496-.051-3.345.026-.301.653-3.43.92-3.232 1.034-3.116.505-3.875-1.665-3.117-3.382-1.776-4.093-.605-4.21.335-4.416 1.384-3.549.525-.559-.023-3.539-.822-3.433-.94-3.199-.238-2.953.877-2.521 1.868-1.511 2.067-.692 2.512-.078 2.894.035 3.023-.019.256-.489 3.03-.172.493-1.495 2.672-.315.391-2.43 2.139-2.527 1.788-2.326 1.78-1.944 1.99-1.284 2.284-.433 2.542.682 4.635 2.366 3.852 3.913 2.312 4.679.72 4.772-.582 4.886-2.121 3.873-.754.846.081 3.94 1.594 3.602 1.952 3.529 1.691 3.636 1.123z" fill="#231f20"/><path d="m124.049 117.919.207-5.304.207-5.307.208-5.303.207-5.308.207-5.311.208-5.312.459-2.91 1.13-2.72 1.736-2.38 2.242-1.909 2.628-1.33 2.866-.677 2.744-.013 2.68.588 2.487 1.159 2.175 1.672 1.757 2.107 1.254 2.44 2.746 7.185 2.746 7.187 2.745 7.183 2.748 7.189 2.749 7.194 2.749 7.194-3.005 1.438-3.009 1.439-3.008 1.44-3.01 1.44-3.015 1.443-3.014 1.443-3.969-2.658-3.967-2.658-3.968-2.657-3.969-2.659-3.976-2.662z" fill="#fff"/><path d="m148.52 135.229-1.482-.107-23.823-15.957-.664-1.305 1.261-32.021.556-3.251 1.303-3.029 1.975-2.638 2.537-2.105 2.96-1.452 3.205-.717 2.744-.013.328.035 2.992.693 2.768 1.33 2.412 1.9 1.94 2.382 1.321 2.59 16.483 43.132-.754 1.889-18.062 8.643zm-22.939-18.089 22.416 15.014 16.043-7.677-15.96-41.763-1.14-2.219-1.545-1.853-1.913-1.47-2.187-1.019-2.356-.517-2.407.011-2.526.597-2.309 1.169-1.972 1.679-1.526 2.092-.993 2.391-.418 2.646-1.208 30.919z" fill="#231f20"/><path d="m125.293 86.074.781-3.01 1.853-2.486 2.666-1.593 3.027-.737 3.118-.095 3.101.374 3.44.277 3.415-.483 3.193-1.299 2.716-2.115 1.91-2.857.703-3.356-1.259-4.338-3.197-3.225-4.128-1.931-4.494-.801-4.561.241-4.386 1.272-3.461 1.948-3.045 2.555-2.734 2.891-2.613 3.006-2.737 2.883-3.195 2.34" fill="#ee4878"/><path d="m126.745 86.45-2.904-.752.781-3.01.249-.52 1.854-2.486.433-.391 2.666-1.593.414-.17 3.337-.78 3.117-.094.225.01 3.102.374 3.214.257 3.067-.434 2.83-1.15 2.36-1.838 1.614-2.415.567-2.706-1.048-3.612-2.74-2.763-3.708-1.735-4.13-.736-4.216.223-4.054 1.175-3.187 1.795-2.872 2.41-2.675 2.828-2.571 2.959-2.983 3.109-3.195 2.34-1.773-2.42 3.087-2.26 2.644-2.785 2.569-2.958 2.902-3.056 3.273-2.713 3.779-2.082 4.725-1.329 4.561-.241.342.021 4.495.801.372.118 4.128 1.932.43.302 3.197 3.225.375.638 1.259 4.338.027.725-.703 3.357-.221.526-1.91 2.857-.326.35-2.715 2.114-.357.206-3.548 1.395-3.745.493-3.44-.277-3.048-.366-2.848.086-2.655.647-2.216 1.325-1.5 2.011z" fill="#231f20"/><path d="m154.239 94.63-2.001.509-2.021.419-2.04.295-2.056.15-2.062.001-2.059-.135-1.875.135-1.552 1.017-.497 1.781.55 1.791 1.138 1.5 1.46 1.2 2.564 1.227 2.771.659 2.842.226 2.844-.18 2.776-.646 2.524-1.299-.552-1.444-.551-1.442-.552-1.443-.551-1.443-.55-1.439z" fill="#fff"/><path d="m149.495 106.902-.213-.002-3.07-.262-3.072-.765-2.869-1.421-1.703-1.453-1.138-1.5-.239-.466-.55-1.791-.011-.843.497-1.782.623-.852 1.552-1.017.714-.241 2.081-.136 2.06.135 1.907-.004 1.95-.142 1.987-.288 1.932-.403 1.936-.493 1.771.918 3.306 8.65-.715 1.869-2.87 1.426-3.021.682-2.844.18zm-2.702-3.209 2.619.208 2.614-.165 2.474-.576 1.164-.599-2.35-6.148-.707.179-2.086.434-2.236.323-2.164.153h-2.062l-2.054-.131-1.385.1-.755.495-.227.815.343 1.116.871 1.148 1.184.972 2.255 1.08 2.502.595zM133.464 90.91l-2.668-1.371 1.113-2.165.3-.401 1.758-1.671.61-.352 2.313-.682.774-.02 2.35.564.504.225 2.246 1.599 1.659 1.794-2.202 2.037-1.548-1.673-1.631-1.13-1.689-.405-1.581.466-1.311 1.247zM17.935 211.043l.822-7.63 2.28-7.333 3.249-6.966 3.678-6.749 3.64-6.773 3.157-7.005 4.213-14.833 4.372-14.79 6.375-14.022 9.717-11.894 13.349-7.526 15.198-2.257 10.578.792 10.235 2.738 9.471 4.761 9.014 5.606 9.684 4.258 10.49 1.384 6.942-.547 6.686-1.925 6.251-3.08 6.328-2.891 6.757-1.658 6.949-.464 12.344 1.359 11.326 4.988 8.665 8.839 5.981 10.894 5.044 11.376 6.335 10.675 7.602 7.519 8.19 6.901 7.782 7.349 6.489 8.494 4.192 9.815 1.354 10.595H60.39z" fill="#231f20"/><path d="M272.674 212.543H17.935l-1.491-1.661.882-7.915 2.353-7.521 3.248-6.966 7.332-13.552 3.09-6.857 4.183-14.727 4.449-15 6.579-14.351 9.717-11.894.425-.357 13.349-7.526.516-.177 15.531-2.269 10.853.839 10.522 2.847 9.589 4.827 8.924 5.55 9.39 4.129 10.121 1.335 6.634-.523 6.412-1.846 6.131-3.021 6.633-3.002 7.015-1.699 6.948-.463.264.005 12.344 1.359.44.119 11.326 4.988.467.323 8.665 8.84.244.328 6.038 11.007 5.008 11.295 6.191 10.432 7.422 7.343 8.145 6.862 8.007 7.585 6.677 8.816 4.191 9.815.108.399 1.354 10.594-1.488 1.69zm-253.069-3H270.97l-1.112-8.698-4.036-9.451-6.302-8.249-7.693-7.266-8.216-6.924-7.836-7.821-6.416-10.832-5.018-11.318-5.851-10.656-8.318-8.486-10.851-4.778-11.983-1.319-6.686.446-6.492 1.594-6.199 2.833-6.459 3.157-6.984 1.979-6.942.547-.314-.008-10.49-1.384-.407-.114-9.872-4.357-8.956-5.57-9.273-4.662-9.951-2.662-10.271-.77-14.758 2.192-12.861 7.251-9.415 11.524-6.251 13.75-4.342 14.689-4.284 15.024-3.203 7.099-7.323 13.53-3.163 6.79-2.207 7.098-.628 5.824z" fill="#231f20"/><path d="m91.03 211.243-2.973-.399.775-5.769 4.301-28.82.43-4.11.055-4.132-.321-4.119-.696-4.072-1.063-3.993-1.446-3.943 2.816-1.033 1.511 4.138 1.128 4.258.735 4.344.337 4.392-.066 4.405-.445 4.246-4.305 28.856zm107.818.237-12.267-40.326-.949-3.868-.519-3.868-.11-3.742.004-.159.309-3.891.72-3.836 1.07-3.588 2.875.857-1.047 3.512-.654 3.523-.276 3.574.105 3.582.485 3.551.879 3.557 12.245 40.249zm66.745-139.324-1.215.091-1.186.274-1.131.451-1.05.617-.945.768-.82.9-.82-.9-.945-.768-1.05-.617-1.131-.451-1.186-.274-1.215-.091-1.215.091-1.186.274-1.131.451-1.05.617-.945.768-.82.9-.82-.9-.945-.768-1.05-.617-1.131-.451-1.186-.274-1.215-.091-1.215.091-1.186.274-1.131.451-1.05.617-.945.768-.82.9-.82-.9-.945-.768-1.05-.617-1.131-.451-1.186-.274-1.215-.091-2.088.273-1.945.806-1.67 1.283-1.282 1.67-.806 1.944-.273 2.088v62.201l-.688.496-.686.495-.691.498-.691.499-.693.5-.693.5.013 2.646.014 2.649.013 2.65.013 2.65.013 2.654.013 2.655 2.788 1.453 2.791 1.456 2.792 1.455 2.792 1.456 2.797 1.458 2.797 1.458h41.517V80.22l-.273-2.088-.807-1.945-1.283-1.669-1.669-1.283-1.945-.806z" fill="#fff"/><path d="M273.658 171.549h-41.517l-.693-.17-16.756-8.736-.807-1.323-.079-15.904.622-1.224 3.519-2.539.013-61.628.273-2.088.102-.38.806-1.944.196-.339 1.283-1.67.276-.276 1.669-1.283.339-.196 1.945-.807.381-.102 2.394-.281 1.44.125 1.405.342 1.335.551 1.235.746.82.666 1.005-.794 1.254-.717 1.349-.52 1.412-.308 1.438-.091 1.44.125 1.405.342 1.335.551 1.235.746.82.666 1.005-.794 1.254-.717 1.349-.52 1.412-.308 1.438-.091 1.44.125 1.405.342 1.335.551 1.235.746.82.666 1.005-.794 1.254-.717 1.349-.52 1.412-.308 1.215-.091.306.008 2.088.272.381.102 1.945.807.339.196 1.67 1.283.276.275 1.283 1.669.196.339.807 1.945.102.38.286 2.282v89.829l-1.5 1.5zm-41.15-3h39.65V80.318l-.235-1.794-.655-1.579-1.042-1.357-1.357-1.042-1.579-.655-1.738-.227-.947.071-.963.222-.918.367-.854.502-.77.625-.745.817h-2.217l-.744-.817-.77-.625-.854-.502-.918-.367-.963-.222-.989-.074-.989.074-.963.222-.918.367-.854.502-.77.625-.744.817h-2.217l-.745-.817-.77-.625-.854-.502-.918-.367-.963-.222-.989-.074-.989.074-.963.222-.918.367-.854.502-.77.625-.744.817h-2.217l-.745-.816-.77-.625-.854-.502-.918-.367-.963-.222-.947-.071-1.738.227-1.579.655-1.357 1.042-1.043 1.357-.655 1.579-.234 1.794v62.104l-.623 1.216-3.515 2.536.071 14.227 15.628 8.148z" fill="#231f20"/><path d="M215.19 161.313v-38.978l-.736-3.102-.736-3.105-.737-3.105-.737-3.106-.738-3.111-.739-3.111-.211-2.07.339-2.053.863-1.892 1.326-1.603 1.699-1.2 1.954-.713 1.789-.189 1.785.222 1.688.621 1.504.985 1.242 1.3.915 1.549 1.277 2.859 1.278 2.863 1.279 2.863 1.279 2.864 1.281 2.869 1.281 2.868 3.357 1.484 3.039 2.058 2.649 2.541 2.18 2.953 1.6 3.302.84 3.567-5.299 4.926-5.3 4.927-5.297 4.924-5.302 4.929-5.306 4.932z" fill="#fff"/><g fill="#231f20"><path d="m213.884 161.32-.193-38.806-4.416-18.667-.211-2.07.012-.396.339-2.053.115-.378.864-1.893.209-.333 1.325-1.603.29-.269 1.699-1.2.352-.184 2.311-.796 1.789-.189.343.004 2.116.302 1.993.774 1.767 1.204 1.449 1.573.993 1.7 7.44 16.66 3.063 1.379 3.236 2.218 2.818 2.733 2.323 3.19 1.71 3.612.84 3.567-2.92.688-.802-3.406-1.467-3.028-2.022-2.738-2.465-2.365-2.822-1.911-3.233-1.429-.763-.76-7.641-17.109-.784-1.326-1.004-1.051-1.217-.798-1.365-.501-1.443-.18-1.434.151-1.593.581-1.372.97-1.072 1.296-.699 1.531-.273 1.658.18 1.772 4.441 18.883.194 38.978z"/><path d="M215.384 211.043h70.594v-64.888h-70.594v54.069z"/><path d="M285.978 212.543h-70.594l-1.5-1.5v-64.889l1.5-1.5h70.594l1.5 1.5v64.889zm-69.094-3h67.594v-61.889h-67.594zm45.58-109.385h-3l-.042-20.662-.12-.719-.197-.697-.274-.671-.347-.636-.462-.662 2.46-1.718.597.872.498.934.391.983.28 1.02.165 1.045.048.891zm-12.695 0h-3l-.041-20.663-.12-.718-.197-.697-.274-.671-.347-.636-.462-.662 2.46-1.718.597.872.498.934.391.983.28 1.02.165 1.045.048.891zm-12.694 0h-3l-.041-20.663-.119-.718-.198-.696-.274-.672-.347-.636-.462-.662 2.46-1.718.597.872.498.934.391.983.28 1.02.165 1.045.048.891z"/></g><path d="M213.805 145.409h3v64.852h-3z" fill="#fff"/></svg></g><g transform="translate(2371.014492753623 646.3768115942029) rotate(0.0 202.89855072463774 217.39130434782606) scale(2.8830645493440623 2.8806141008364725)"><svg width="140.752" height="150.934" viewBox="0 0 140.752 150.934"><path d="m100.708 1.415-13.43 4.738-13.433 4.74-13.438 4.742-13.434 4.74-13.442 4.744-13.443 4.743-3.111 6.503-3.111 6.504-3.11 6.501-3.112 6.507-3.115 6.511-3.114 6.511 4.738 13.43 4.74 13.433 4.742 13.438 4.74 13.434 4.744 13.442 4.743 13.443 18.245-6.438 18.239-6.436 18.246-6.438 18.247-6.438 18.249-6.44 18.25-6.439-6.438-18.245-6.436-18.239-6.439-18.246-6.438-18.247-6.44-18.249z" fill="#fff"/><g fill="#231f20"><path d="m30.361 150.934-1.914-.916L0 69.398l.061-1.146 18.674-39.037.854-.767L100.209 0l1.914.916 38.63 109.475-.916 1.914zM3.036 68.986l27.742 78.62 106.646-37.631L99.793 3.328 21.173 31.07z"/><path d="m119.561 101.43-13.366 4.716-13.37 4.718-13.374 4.719-13.37 4.718-13.379 4.72-13.38 4.721-4.716-13.366-4.718-13.369-4.719-13.374-4.718-13.37-4.721-13.38-4.721-13.379 13.367-4.716 13.369-4.718 13.374-4.719 13.37-4.718 13.38-4.721 13.379-4.721 4.716 13.366 4.718 13.37 4.719 13.374 4.718 13.37 4.721 13.379z"/><path d="m39.821 131.157-1.914-.916L9.595 50.003l.916-1.914 80.238-28.312 1.914.916 28.313 80.238-.916 1.914-80.238 28.313zM12.923 50.42l27.315 77.409 77.409-27.314-27.315-77.41z"/></g><path d="m30.269 58.717-4.806 1.696-4.806 1.696-4.805 1.696-4.811 1.697L6.228 67.2l-4.814 1.699 3.111-6.503 3.111-6.504 3.11-6.501 3.113-6.507 3.114-6.511 3.115-6.511 1.696 4.807 1.695 4.805 1.696 4.806 1.698 4.81 1.698 4.814z" fill="#fff"/><path d="M1.914 70.314.061 68.252l18.674-39.037 2.768.148 10.182 28.855-.916 1.914zm17.964-36.538L4.33 66.279l24.026-8.478z" fill="#231f20"/></svg></g><g transform="translate(266.6666666666667 205.79710144927537) rotate(0.0 1294.2028985507247 888.4057971014493) scale(2.8953214523347413 2.893518928263246)"><svg width="893.996" height="614.066" viewBox="0 0 893.996 614.066"><path d="m244.641 535.318-.278-2.127-.821-1.982-1.308-1.701-1.701-1.307-1.981-.822-2.128-.278-2.128.278-1.982.822-1.701 1.307-1.307 1.701-.821 1.982-.278 2.127.278 2.128.822 1.982 1.307 1.701 1.701 1.307 1.982.822 2.127.278 2.128-.278 1.982-.822 1.701-1.307 1.307-1.702.821-1.981z" fill="#fff"/><path d="M236.619 545.023h-.389l-2.128-.278-.38-.102-1.982-.821-.34-.196-1.701-1.308-.275-.275-1.307-1.701-.196-.34-.822-1.981-.102-.38-.278-2.128v-.389l.278-2.127.102-.38.822-1.982.196-.34 1.307-1.701.276-.275 1.701-1.307.339-.196 1.982-.822.381-.102 2.128-.277h.388l2.127.277.381.102 1.982.822.339.196 1.701 1.307.276.275 1.307 1.701.196.34.822 1.981.102.38.278 2.128v.389l-.278 2.128-.102.38-.822 1.981-.196.34-1.307 1.701-.276.275-1.701 1.307-.339.196-1.982.822-.38.102zm-1.931-3.228 1.736.228 1.736-.228 1.616-.67 1.389-1.066 1.067-1.389.67-1.616.227-1.736-.227-1.736-.67-1.616-1.067-1.388-1.389-1.067-1.616-.67-1.736-.227-1.737.227-1.616.67-1.389 1.066-1.067 1.389-.67 1.616-.227 1.736.227 1.736.67 1.616 1.067 1.389 1.389 1.067 1.616.669z" fill="#231f20"/><path d="m892.509 298.964-.278-2.128-.822-1.982-1.307-1.701-1.701-1.307-1.982-.822-2.127-.278-2.128.278-1.982.822-1.701 1.307-1.307 1.701-.822 1.982-.278 2.128.278 2.127.822 1.982 1.307 1.701 1.702 1.307 1.981.822 2.128.278 2.127-.278 1.982-.822 1.702-1.307 1.307-1.701.821-1.982z" fill="#fff"/><path d="M884.486 308.668h-.388l-2.127-.277-.381-.102-1.982-.822-.339-.196-1.701-1.307-.276-.275-1.307-1.701-.196-.34-.822-1.981-.102-.38-.278-2.128v-.389l.278-2.128.102-.38.822-1.981.196-.34 1.307-1.701.275-.275 1.701-1.308.34-.196 1.982-.821.38-.102 2.128-.278h.389l2.127.278.38.102 1.982.821.34.196 1.701 1.308.275.275 1.307 1.701.196.34.822 1.981.102.38.278 2.128v.389l-.278 2.127-.102.38-.822 1.982-.196.34-1.307 1.701-.276.275-1.701 1.307-.339.196-1.982.822-.381.102zm-1.93-3.227 1.736.227 1.736-.227 1.616-.67 1.389-1.066 1.066-1.389.67-1.616.227-1.736-.227-1.736-.67-1.616-1.067-1.389-1.388-1.067-1.616-.669-1.736-.228-1.737.228-1.616.669-1.388 1.067-1.067 1.389-.67 1.616-.227 1.736.227 1.736.67 1.616 1.067 1.388 1.389 1.067z" fill="#231f20"/><path d="m612.466 20.035-.278-2.128-.822-1.982-1.307-1.701-1.702-1.307-1.981-.822-2.128-.278-2.127.278-1.982.822-1.702 1.307-1.307 1.701-.821 1.982-.278 2.128.278 2.127.822 1.982 1.307 1.701 1.701 1.307 1.982.822 2.127.278 2.128-.278 1.982-.822 1.701-1.307 1.307-1.701.822-1.982z" fill="#fff"/><path d="M604.443 29.739h-.389l-2.127-.278-.38-.102-1.982-.821-.339-.196-1.701-1.307-.276-.275-1.307-1.701-.196-.34-.822-1.982-.102-.38-.278-2.127v-.389l.278-2.128.102-.38.822-1.981.196-.34 1.307-1.701.275-.275 1.701-1.308.34-.196 1.982-.821.38-.102 2.128-.278h.389l2.128.278.38.102 1.982.821.339.196 1.701 1.307.276.275 1.307 1.701.196.34.822 1.982.102.38.278 2.128v.389l-.278 2.127-.102.38-.822 1.981-.196.34-1.307 1.701-.275.275-1.701 1.308-.34.196-1.982.821-.38.102-2.128.278zm-1.931-3.228 1.736.228 1.737-.228 1.616-.669 1.389-1.067 1.067-1.389.67-1.616.227-1.735-.227-1.736-.67-1.617-1.067-1.388-1.389-1.067-1.616-.669-1.736-.228-1.736.228-1.616.669-1.389 1.067-1.067 1.389-.67 1.616-.227 1.736.227 1.735.67 1.617 1.067 1.389 1.388 1.066z" fill="#231f20"/><path d="m689.916 601.235-.796-.059a1.492 1.492 0 0 1-.386-.081l-.754-.264a1.507 1.507 0 0 1-.347-.175l-.661-.449a1.496 1.496 0 0 1-.294-.262l-.521-.605c-.085-.1-.158-.21-.215-.329l-.346-.719a1.461 1.461 0 0 1-.122-.37l-.149-.784a1.507 1.507 0 0 1-.022-.391l.059-.796c.01-.131.037-.261.08-.385l.264-.754a1.3 1.3 0 0 1 .077-.18l20.764-41.212a1.46 1.46 0 0 1 .098-.167l.449-.661c.074-.109.163-.208.263-.295l.605-.521c.099-.085.209-.157.327-.214l.719-.347c.118-.057.242-.098.371-.123l.784-.149a1.477 1.477 0 0 1 .391-.022l.796.059c.132.01.262.037.386.081l.754.264c.123.043.239.102.347.175l.661.449c.109.074.208.162.294.262l.521.605c.085.1.158.21.215.329l.346.719c.057.117.098.242.122.37l.149.784c.024.129.032.26.022.391l-.059.796c-.01.131-.037.261-.08.385l-.264.754a1.3 1.3 0 0 1-.077.18l-20.764 41.212a1.46 1.46 0 0 1-.098.167l-.449.661a1.536 1.536 0 0 1-.263.295l-.605.521a1.511 1.511 0 0 1-.327.214l-.719.347a1.511 1.511 0 0 1-.371.123l-.784.149a1.477 1.477 0 0 1-.391.022z" fill="#fff"/><path d="m710.442 552.418.796.059.754.264.661.449.521.605.347.719.149.784-.059.796-.264.754-3.459 6.865-3.46 6.867-3.458 6.863-3.461 6.869-3.463 6.874-3.463 6.874-.449.661-.605.521-.719.346-.784.149-.796-.059-.754-.264-.661-.449-.521-.605-.347-.719-.149-.784.059-.796.264-.754 3.459-6.865 3.46-6.867 3.458-6.863 3.461-6.869 3.463-6.874 3.463-6.874.449-.661.605-.521.719-.347.784-.149m0-3c-.188 0-.376.018-.562.053l-.784.149a3.025 3.025 0 0 0-.741.244l-.719.347a2.996 2.996 0 0 0-.655.429l-.605.521c-.2.172-.375.369-.524.587l-.449.661c-.073.108-.139.22-.198.337l-3.463 6.874-3.463 6.874-3.461 6.869-3.458 6.863-3.46 6.867-3.459 6.865a2.904 2.904 0 0 0-.152.359l-.264.754a2.991 2.991 0 0 0-.16.77l-.059.796c-.019.262-.004.525.045.782l.149.784c.049.257.131.506.244.741l.347.719c.114.236.258.457.429.656l.521.605c.172.199.369.375.587.523l.661.449c.216.146.45.264.696.351l.754.264c.248.087.507.141.77.16l.796.059a3.038 3.038 0 0 0 .783-.045l.784-.149c.256-.049.505-.131.74-.244l.719-.346c.237-.114.458-.259.657-.43l.605-.521c.199-.172.375-.369.523-.586l.449-.661c.073-.108.139-.22.198-.337l3.463-6.874 3.463-6.874 3.461-6.869 3.458-6.863 3.46-6.867 3.459-6.865c.059-.116.109-.236.152-.359l.264-.754c.087-.249.141-.508.16-.77l.059-.796a3.013 3.013 0 0 0-.045-.782l-.149-.784a2.972 2.972 0 0 0-.245-.741l-.347-.719a3.02 3.02 0 0 0-.429-.655l-.521-.605c-.172-.2-.37-.376-.588-.524l-.661-.449a3.002 3.002 0 0 0-.695-.35l-.754-.264a2.991 2.991 0 0 0-.77-.16l-.796-.059a3.24 3.24 0 0 0-.221-.008z" fill="#231f20"/><path d="M854.72 176.757a1.48 1.48 0 0 1-.385-.072l-.759-.248a1.518 1.518 0 0 1-.352-.168l-.669-.435a1.48 1.48 0 0 1-.298-.255l-.534-.594a1.522 1.522 0 0 1-.221-.324l-.361-.712a1.433 1.433 0 0 1-.077-.18l-15.356-43.518a1.686 1.686 0 0 1-.053-.188l-.166-.782a1.48 1.48 0 0 1-.03-.393l.043-.797c.007-.131.031-.26.072-.384l.248-.759c.041-.124.097-.242.168-.352l.435-.669c.072-.11.157-.21.255-.298l.594-.534c.098-.088.208-.163.325-.223l.712-.361a1.49 1.49 0 0 1 .366-.129l.782-.166a1.49 1.49 0 0 1 .312-.033c.027 0 .878.045.878.045.131.007.261.031.385.072l.759.248c.125.041.243.097.353.169l.669.436c.11.071.209.157.297.254l.534.594c.088.098.163.207.222.324l.361.712c.029.058.055.118.077.18l15.356 43.518c.021.061.039.124.053.187l.166.781c.027.129.038.262.03.394l-.043.798c-.007.131-.031.26-.072.385l-.248.759a1.511 1.511 0 0 1-.168.351l-.435.669c-.072.11-.157.21-.255.298l-.594.534a1.537 1.537 0 0 1-.325.223l-.712.361a1.49 1.49 0 0 1-.366.129l-.782.166a1.49 1.49 0 0 1-.312.033c-.027 0-.878-.045-.878-.045z" fill="#fff"/><path d="m839.77 125.683.797.043.759.248.669.435.534.594.361.712 2.558 7.249 2.559 7.251 2.56 7.254 2.559 7.251 2.561 7.256 2.561 7.256.166.782-.043.797-.248.759-.435.669-.594.534-.712.361-.782.166-.797-.043-.759-.248-.669-.435-.534-.594-.361-.712-2.558-7.249-2.559-7.251-2.56-7.254-2.559-7.251-2.561-7.256-2.56-7.256-.166-.781.043-.798.248-.759.435-.669.594-.534.712-.361.782-.166m0-3c-.209 0-.418.022-.623.065l-.782.166a2.975 2.975 0 0 0-.733.259l-.712.361a2.967 2.967 0 0 0-.648.444l-.594.534a2.969 2.969 0 0 0-.51.597l-.435.669a2.983 2.983 0 0 0-.336.702l-.248.759c-.082.25-.13.509-.144.772l-.043.798a3 3 0 0 0 .061.785l.166.781c.027.127.062.252.105.375l2.56 7.256 2.561 7.256 2.559 7.251 2.56 7.254 2.559 7.251 2.558 7.249c.043.123.094.242.153.358l.361.712c.119.235.269.453.445.649l.534.594c.176.195.376.367.596.51l.669.435c.219.142.456.255.704.336l.759.248c.249.082.508.13.77.144l.797.043a3.037 3.037 0 0 0 .785-.061l.782-.166a2.99 2.99 0 0 0 .733-.259l.712-.361c.235-.119.454-.269.65-.445l.594-.534c.195-.175.366-.375.509-.595l.435-.669c.142-.219.255-.455.336-.703l.248-.759c.082-.25.13-.509.144-.771l.043-.797a2.993 2.993 0 0 0-.061-.784l-.166-.782a3.089 3.089 0 0 0-.106-.376l-2.561-7.256-2.561-7.256-2.559-7.251-2.56-7.254-2.559-7.251-2.558-7.249a2.896 2.896 0 0 0-.153-.358l-.361-.712a2.967 2.967 0 0 0-.444-.648l-.534-.594a2.969 2.969 0 0 0-.597-.51l-.669-.435a3.002 3.002 0 0 0-.702-.336l-.759-.248a2.983 2.983 0 0 0-.771-.144l-.797-.043a2.907 2.907 0 0 0-.161-.004z" fill="#231f20"/><path d="M176.384 48.674a1.508 1.508 0 0 1-.382-.072l-.758-.249a1.5 1.5 0 0 1-.354-.17l-.668-.437a1.517 1.517 0 0 1-.298-.256l-.532-.596a1.63 1.63 0 0 1-.12-.154L147.263 8.619a1.422 1.422 0 0 1-.099-.168l-.361-.713a1.474 1.474 0 0 1-.13-.371l-.163-.782a1.47 1.47 0 0 1-.029-.392l.045-.797a1.5 1.5 0 0 1 .072-.381l.249-.759a1.5 1.5 0 0 1 .17-.354l.437-.668c.072-.11.158-.21.256-.298l.596-.532a1.53 1.53 0 0 1 .321-.219l.713-.361c.118-.06.243-.104.372-.13l.782-.163c.101-.021.203-.031.306-.031.028 0 .881.047.881.047.13.007.259.032.383.072l.759.249c.125.041.243.098.353.17l.668.437c.11.072.21.158.298.256l.532.596c.043.049.083.1.12.154l26.008 38.12c.037.054.069.109.099.167l.361.713c.059.118.103.242.13.372l.163.782c.027.128.037.26.029.392l-.045.797c-.007.13-.032.258-.072.382l-.249.759a1.529 1.529 0 0 1-.169.353l-.437.668c-.072.11-.159.211-.257.299l-.596.532a1.53 1.53 0 0 1-.321.219l-.713.361c-.117.06-.242.103-.371.13l-.782.163a1.5 1.5 0 0 1-.306.032c-.028 0-.883-.048-.883-.048z" fill="#fff"/><path d="m150.8 3 .797.045.759.249.668.437.532.596 4.333 6.35 4.333 6.352 4.331 6.348 4.335 6.354 4.338 6.358 4.338 6.358.361.713.163.782-.045.797-.249.759-.437.668-.596.532-.713.361-.782.163-.797-.045-.759-.249-.668-.437-.532-.596-4.333-6.35-4.334-6.352-4.331-6.348-4.335-6.354-4.338-6.358-4.338-6.358-.361-.713-.163-.782.045-.797.249-.759.437-.668.596-.532.713-.361.782-.163m0-3c-.206 0-.411.021-.613.063l-.782.163a3.001 3.001 0 0 0-.742.26l-.713.361a2.974 2.974 0 0 0-.643.439l-.596.532a2.984 2.984 0 0 0-.513.597l-.437.668a3.02 3.02 0 0 0-.339.706l-.249.759c-.081.248-.13.506-.145.766l-.045.797c-.015.262.005.525.058.782l.163.782c.054.258.141.508.26.743l.361.713c.059.116.125.228.198.335l4.338 6.358 4.338 6.358 4.335 6.354 4.332 6.348 4.333 6.352 4.333 6.35c.073.107.153.21.24.307l.532.596c.176.197.376.369.597.514l.668.437c.22.144.457.258.707.34l.759.249c.248.081.505.13.765.145l.797.045a3.008 3.008 0 0 0 .783-.058l.782-.163c.258-.054.507-.141.742-.26l.713-.361c.233-.118.449-.265.644-.439l.596-.532a3 3 0 0 0 .512-.595l.437-.668a3.01 3.01 0 0 0 .34-.707l.249-.759c.081-.248.13-.505.145-.765l.045-.797a3.019 3.019 0 0 0-.058-.782l-.163-.782a3.001 3.001 0 0 0-.26-.742l-.361-.713a3.052 3.052 0 0 0-.198-.336l-4.338-6.358-4.338-6.358-4.335-6.354-4.331-6.348-4.333-6.352-4.333-6.35a2.936 2.936 0 0 0-.24-.306l-.532-.596a3.006 3.006 0 0 0-.596-.513L154 .788a3.01 3.01 0 0 0-.707-.34l-.759-.249a3.025 3.025 0 0 0-.765-.145l-.797-.045a3.216 3.216 0 0 0-.17-.005z" fill="#231f20"/><path d="M180.08 152.168a1.516 1.516 0 0 1-.383-.072l-.759-.249a1.492 1.492 0 0 1-.353-.17l-.668-.437a1.517 1.517 0 0 1-.298-.256l-.532-.596a1.63 1.63 0 0 1-.12-.154l-37.529-55.005a1.422 1.422 0 0 1-.099-.168l-.361-.713a1.474 1.474 0 0 1-.13-.371l-.163-.782a1.47 1.47 0 0 1-.029-.392l.045-.797c.007-.13.032-.258.072-.381l.249-.759a1.5 1.5 0 0 1 .17-.354l.437-.668c.072-.11.159-.211.257-.299l.596-.532a1.53 1.53 0 0 1 .321-.219l.713-.361c.117-.06.242-.103.371-.13l.782-.163a1.5 1.5 0 0 1 .306-.032c.028 0 .883.048.883.048.13.007.258.032.382.072l.758.249a1.5 1.5 0 0 1 .354.17l.668.437c.11.072.21.158.298.256l.532.596c.043.049.083.1.12.154l37.529 55.005c.037.054.07.11.099.168l.361.713c.06.117.103.242.13.371l.163.782c.027.128.037.26.029.392l-.045.797c-.007.13-.032.258-.072.382l-.249.758a1.5 1.5 0 0 1-.17.354l-.437.668c-.072.11-.159.211-.257.299l-.596.532a1.53 1.53 0 0 1-.321.219l-.713.361c-.117.06-.242.103-.371.13l-.782.163a1.5 1.5 0 0 1-.306.032c-.028 0-.881-.047-.881-.047z" fill="#fff"/><path d="m142.974 89.609.797.045.759.249.668.437.532.596 6.251 9.163 6.253 9.165 6.255 9.168 6.253 9.166L177 136.77l6.258 9.172.361.713.163.782-.045.797-.249.759-.437.668-.596.532-.713.361-.782.163-.797-.045-.759-.249-.668-.437-.532-.596-6.251-9.163-6.253-9.165-6.255-9.168-6.253-9.165-6.258-9.172-6.258-9.172-.361-.713-.163-.782.045-.797.249-.759.437-.668.596-.532.713-.361.782-.163m0-3c-.206 0-.411.021-.613.063l-.782.163a3.009 3.009 0 0 0-.743.26l-.713.361a3.024 3.024 0 0 0-.642.438l-.596.532a3.01 3.01 0 0 0-.513.596l-.437.668a3.01 3.01 0 0 0-.34.707l-.249.759c-.081.248-.13.505-.145.765l-.045.797c-.015.262.005.525.058.781l.163.782c.054.258.142.508.261.744l.361.713c.059.116.125.228.198.335l6.258 9.172 6.258 9.172 6.253 9.165 6.255 9.168 6.253 9.165 6.251 9.163c.073.108.154.21.24.307l.532.596c.176.197.376.369.597.513l.668.437c.219.143.457.257.706.339l.759.249c.248.081.506.13.766.145l.797.045a3.008 3.008 0 0 0 .783-.058l.782-.163c.258-.054.508-.141.743-.26l.713-.361c.232-.118.448-.265.642-.438l.596-.532a3.01 3.01 0 0 0 .513-.596l.437-.668c.144-.22.258-.457.34-.706l.249-.759c.082-.248.13-.506.145-.767l.045-.797a3.014 3.014 0 0 0-.058-.781l-.163-.782a3.033 3.033 0 0 0-.261-.744l-.361-.713a3.038 3.038 0 0 0-.198-.335l-6.258-9.172-6.258-9.172-6.253-9.166-6.256-9.168-6.253-9.165-6.251-9.163a2.978 2.978 0 0 0-.24-.307l-.532-.596a2.984 2.984 0 0 0-.597-.513l-.668-.437a3.02 3.02 0 0 0-.706-.339l-.759-.249a3.033 3.033 0 0 0-.766-.145l-.797-.045a3.216 3.216 0 0 0-.17-.005z" fill="#231f20"/><path d="m771.566 585.914-.796-.059a1.542 1.542 0 0 1-.386-.08l-.753-.264a1.487 1.487 0 0 1-.347-.175l-.661-.449a1.496 1.496 0 0 1-.294-.262l-.521-.605c-.085-.1-.158-.21-.215-.328l-.347-.72a1.474 1.474 0 0 1-.122-.37l-.149-.784a1.507 1.507 0 0 1-.022-.391l.059-.796c.01-.132.037-.262.081-.386l.264-.754c.021-.061.047-.121.076-.179l35.779-71.015c.029-.059.062-.115.099-.168l.449-.661c.074-.109.162-.207.261-.293l.605-.521c.1-.086.21-.158.329-.215l.719-.346c.117-.057.242-.098.37-.122l.785-.149a1.477 1.477 0 0 1 .391-.022l.796.059c.131.01.261.037.386.081l.754.264c.123.043.239.102.346.174l.661.449c.109.074.208.163.294.262l.521.605c.085.1.158.21.215.328l.347.72c.057.118.098.242.122.37l.149.784c.024.129.032.261.022.392l-.059.796c-.01.131-.037.26-.08.384l-.264.754a1.3 1.3 0 0 1-.077.18l-35.779 71.015a1.398 1.398 0 0 1-.099.168l-.449.661a1.517 1.517 0 0 1-.261.293l-.605.521c-.1.086-.21.158-.329.215l-.72.346a1.474 1.474 0 0 1-.37.122l-.784.149a1.477 1.477 0 0 1-.391.022z" fill="#fff"/><path d="m807.107 507.294.796.059.754.264.661.449.521.605.347.719.149.784-.059.796-.264.754-5.96 11.83-5.962 11.833-5.964 11.837-5.962 11.833-5.966 11.841-5.966 11.841-.449.661-.605.521-.719.347-.784.149-.796-.059-.754-.264-.661-.449-.521-.605-.346-.719-.149-.784.059-.796.264-.754 5.96-11.83 5.962-11.833 5.964-11.837 5.962-11.833 5.966-11.841 5.966-11.841.449-.661.605-.521.719-.346.784-.15m0-3a3.05 3.05 0 0 0-.563.053l-.784.15a3.01 3.01 0 0 0-.739.244l-.719.346a2.97 2.97 0 0 0-.656.43l-.605.521a3.05 3.05 0 0 0-.524.587l-.449.661c-.073.108-.139.22-.198.336l-5.966 11.841-5.966 11.841-5.962 11.833-5.964 11.837-5.962 11.833-5.96 11.83a3.125 3.125 0 0 0-.152.358l-.264.754a3.034 3.034 0 0 0-.161.771l-.059.796c-.019.261-.004.524.045.782l.149.784c.049.256.131.505.244.74l.346.719c.114.237.258.457.43.656l.521.605c.172.2.369.376.587.524l.661.449c.215.146.449.264.695.35l.754.264c.249.087.507.141.77.16l.796.059a3.038 3.038 0 0 0 .783-.045l.784-.149a3.01 3.01 0 0 0 .741-.244l.719-.347a3.02 3.02 0 0 0 .655-.429l.605-.521c.2-.172.376-.37.525-.588l.449-.661c.073-.107.139-.219.197-.335l5.966-11.841 5.966-11.841 5.962-11.833 5.964-11.837 5.962-11.833 5.96-11.83c.058-.116.109-.236.152-.358l.264-.754a2.99 2.99 0 0 0 .16-.771l.059-.796a3.013 3.013 0 0 0-.045-.782l-.149-.784a3.01 3.01 0 0 0-.244-.741l-.347-.719a3.02 3.02 0 0 0-.429-.655l-.521-.605c-.172-.2-.37-.376-.588-.525l-.661-.449a2.995 2.995 0 0 0-.694-.35l-.754-.264a3.035 3.035 0 0 0-.77-.161l-.796-.059a3.263 3.263 0 0 0-.221-.008z" fill="#231f20"/><path d="m25.815 301.658.725 3.501.753 3.5.766 3.499.763 3.503.745 3.503.711 3.509 3.504.71 3.502.744 3.5.763 3.502.767 3.501.754 3.506.726-3.501.726-3.499.754-3.5.766-3.503.763-3.503.745-3.509.711-.71 3.504-.744 3.502-.763 3.5-.767 3.502-.754 3.501-.728 3.506-.725-3.576-.753-3.573-.766-3.575-.763-3.577-.745-3.577-.711-3.584-3.504-.635-3.501-.67-3.501-.689-3.503-.691-3.5-.68-3.506-.652 3.501-.8 3.5-.828 3.499-.841 3.502-.838 3.503-.82 3.51-.785.71-3.43.744-3.427.763-3.426.767-3.427.754-3.427z" fill="#fff"/><path d="m27.28 352.922-2.939-.007-4.265-20.466-6.014-1.126L.06 328.612 0 325.676l20.076-4.701 1.261-5.924 3.01-13.704 2.936.008 4.267 20.046 6.045 1.261 14.001 3.008v2.938l-20.047 4.269-1.26 6.045-3.01 14.002zM7.591 326.99l14.025 2.689 1.203 1.184 1.453 7.146 1.556 7.279 2.272-10.494.707-3.49 1.172-1.172 6.997-1.453 7.059-1.542-14.056-2.995-1.172-1.172-1.453-6.997-1.558-7.135-2.273 10.275-.707 3.416-1.141 1.16-6.998 1.602-7.087 1.698z" fill="#231f20"/><path d="m698.982 207.667-.159-1.217-.47-1.132-.747-.972-.972-.747-1.132-.469-1.216-.159-1.216.159-1.133.47-.972.747-.746.972-.47 1.132-.159 1.216.159 1.216.47 1.132.747.972.972.747 1.132.469 1.216.159 1.216-.159 1.133-.47.972-.746.746-.972.47-1.133z" fill="#fff"/><path d="M694.481 213.849h-.389l-1.216-.159-.379-.102-1.132-.469-.34-.196-.972-.747-.275-.275-.747-.972-.196-.34-.47-1.133-.102-.38-.159-1.216v-.389l.159-1.216.102-.38.469-1.133.196-.34.747-.972.275-.275.972-.747.339-.196 1.132-.47.38-.102 1.216-.159h.389l1.216.159.38.102 1.132.47.339.196.972.746.276.275.747.973.196.339.47 1.132.102.381.159 1.217v.389l-.159 1.216-.102.381-.469 1.132-.196.339-.747.972-.275.275-.972.747-.339.196-1.132.47-.38.102-1.216.159zm-1.019-3.108.825.108.825-.108.766-.317.66-.507.507-.659.318-.767.108-.824-.108-.825-.318-.767-.507-.659-.659-.507-.767-.317-.824-.108-.825.108-.766.317-.659.507-.506.659-.318.767-.108.825.108.824.318.768.507.659.659.506.766.317z" fill="#231f20"/><path d="m732.023 607.883-.159-1.217-.47-1.132-.747-.972-.972-.747-1.132-.469-1.216-.159-1.216.159-1.132.47-.972.747-.747.972-.469 1.132-.159 1.216.159 1.216.469 1.132.747.972.972.747 1.133.469 1.215.159 1.217-.159 1.132-.469.972-.747.747-.972.469-1.133z" fill="#fff"/><path d="m727.134 614.065-1.216-.158-.381-.102-1.132-.47-.339-.196-.972-.747-.275-.275-.747-.972-.196-.339-.47-1.132-.102-.381-.159-1.217v-.389l.159-1.216.102-.38.469-1.132.196-.339.747-.973.276-.276.972-.747.34-.196 1.132-.469.379-.102 1.216-.159h.388l1.216.158.381.102 1.132.47.339.196.972.747.275.275.747.972.196.339.47 1.132.102.381.159 1.217v.389l-.159 1.216-.102.38-.469 1.132-.196.339-.747.973-.276.276-.972.746-.339.196-1.132.47-.38.102-1.216.159zm-.631-3.107.824.107.826-.108.767-.317.659-.506.507-.66.318-.767.108-.824-.108-.825-.318-.766-.507-.66-.66-.507-.766-.317-.824-.107-.826.108-.766.317-.659.506-.507.66-.318.767-.108.824.108.825.318.766.507.66.66.507.766.317z" fill="#231f20"/><path d="m448.705 68.877-.159-1.217-.47-1.132-.747-.972-.972-.747-1.132-.469-1.216-.159-1.216.159-1.133.47-.972.747-.746.972-.47 1.132-.159 1.216.16 1.216.469 1.132.747.972.972.747 1.132.469 1.216.159 1.217-.159 1.132-.47.972-.746.747-.972.469-1.133z" fill="#fff"/><path d="M444.204 75.059h-.389l-1.216-.159-.379-.102-1.132-.469-.34-.196-.972-.747-.275-.275-.747-.972-.196-.34-.47-1.133-.102-.38-.159-1.216v-.389l.159-1.216.102-.38.469-1.133.196-.34.747-.972.275-.275.972-.747.339-.196 1.132-.47.38-.102 1.216-.159h.389l1.216.159.38.102 1.132.47.339.196.972.746.276.275.747.973.196.339.47 1.132.102.381.159 1.217v.389l-.159 1.216-.102.381-.469 1.132-.196.339-.747.972-.275.275-.972.747-.339.196-1.132.47-.38.102-1.216.159zm-1.019-3.108.825.108.825-.108.766-.317.66-.507.507-.659.318-.767.108-.824-.108-.825-.318-.767-.507-.659-.659-.507-.767-.317-.824-.108-.825.108-.766.317-.659.507-.506.659-.318.767-.108.825.108.824.318.768.507.659.659.506.766.317z" fill="#231f20"/><path d="m100.505 177.416-.159-1.216-.47-1.133-.747-.972-.972-.746-1.132-.47-1.216-.159-1.216.16-1.133.469-.972.747-.746.972-.47 1.132-.159 1.216.16 1.217.469 1.132.747.972.972.747 1.132.469 1.216.159 1.216-.159 1.133-.47.972-.747.746-.972.47-1.132z" fill="#fff"/><path d="M96.004 183.599h-.389l-1.216-.159-.38-.102-1.132-.47-.339-.196-.972-.746-.276-.275-.747-.973-.196-.339-.47-1.132-.102-.381-.159-1.217v-.389l.159-1.216.102-.38.469-1.132.196-.34.747-.972.275-.275.972-.747.339-.196 1.132-.47.38-.102 1.216-.159h.389l1.216.159.379.102 1.132.469.34.196.972.747.275.275.747.972.196.34.47 1.133.102.38.159 1.216v.389l-.159 1.216-.102.38-.469 1.133-.196.34-.747.972-.275.275-.972.747-.339.196-1.132.47-.38.102-1.216.159zm-1.019-3.108.824.108.825-.108.766-.317.659-.507.507-.659.318-.767.108-.825-.108-.824-.318-.768-.507-.659-.659-.506-.766-.317-.825-.108-.825.108-.766.317-.66.507-.507.659-.318.767-.108.824.108.825.318.767.507.659.659.507.767.317z" fill="#231f20"/><path d="m197.944 480.21-.159-1.216-.47-1.132-.747-.972-.972-.747-1.132-.469-1.216-.159-1.216.159-1.132.469-.972.747-.747.972-.469 1.133-.159 1.215.159 1.217.469 1.132.747.972.972.747 1.133.469 1.215.159 1.217-.159 1.132-.47.972-.747.747-.972.469-1.132z" fill="#fff"/><path d="M193.443 486.393h-.389l-1.216-.159-.38-.102-1.132-.47-.339-.196-.972-.746-.276-.275-.747-.972-.196-.34-.47-1.133-.102-.38-.159-1.216v-.389l.159-1.216.102-.38.469-1.133.196-.34.747-.972.275-.275.972-.747.339-.196 1.132-.47.38-.102 1.216-.159h.389l1.216.159.38.102 1.132.47.339.196.972.746.276.275.747.972.196.34.47 1.133.102.38.159 1.217v.389l-.159 1.215-.102.38-.469 1.133-.196.34-.747.972-.275.275-.972.747-.339.196-1.132.47-.38.102zm-1.019-3.108.824.108.825-.108.766-.317.66-.507.506-.659.318-.767.108-.824-.108-.825-.318-.768-.507-.658-.66-.507-.767-.317-.824-.108-.825.108-.766.317-.659.507-.506.659-.318.767-.108.825.108.824.318.768.506.658.66.507z" fill="#231f20"/><path d="m702.552 39.956.889 3.282.889 3.284.89 3.286.889 3.286.892 3.291.891 3.292 2.521-2.28 2.524-2.283 2.525-2.283 2.525-2.283 2.529-2.287 2.529-2.287-1.026 3.24-1.028 3.245-1.028 3.244-1.028 3.246-1.03 3.251-1.029 3.25 3.353-.555 3.358-.555 3.358-.556 3.359-.555 3.364-.557 3.364-.557-2.615 2.171-2.619 2.174-2.619 2.174-2.619 2.174-2.624 2.178-2.624 2.178 3.121 1.347 3.125 1.348 3.125 1.348 3.127 1.348 3.131 1.351 3.131 1.35-3.374.413-3.378.412-3.379.413-3.379.413-3.385.414-3.385.414 1.898 2.82 1.9 2.823 1.901 2.824 1.9 2.824 1.904 2.829 1.904 2.829-3.061-1.477-3.065-1.479-3.066-1.479-3.066-1.48-3.071-1.481-3.071-1.482.072 3.398.072 3.403.072 3.402.072 3.404.072 3.409.072 3.41-1.776-2.898-1.779-2.902-1.779-2.901-1.78-2.903-1.782-2.907-1.783-2.907-1.777 2.898-1.778 2.902-1.78 2.901-1.779 2.903-1.782 2.907-1.783 2.907.072-3.399.072-3.402.072-3.403.072-3.404.072-3.409.073-3.409-3.062 1.477-3.065 1.479-3.065 1.479-3.066 1.48-3.072 1.481-3.071 1.482 1.898-2.82 1.9-2.823 1.901-2.824 1.901-2.824 1.903-2.829 1.904-2.829-3.374-.413-3.378-.412-3.378-.413-3.38-.413-3.384-.414-3.385-.414 3.121-1.346 3.125-1.348 3.125-1.348 3.126-1.348 3.131-1.351 3.132-1.351-2.616-2.171-2.619-2.173-2.619-2.174-2.619-2.175-2.624-2.178-2.624-2.178 3.354.555 3.358.556 3.358.555 3.358.556 3.365.557 3.364.556-1.027-3.24-1.027-3.245-1.028-3.244-1.028-3.246-1.03-3.251-1.03-3.25 2.521 2.28 2.525 2.282 2.524 2.283 2.525 2.283 2.529 2.288 2.53 2.287.888-3.281.89-3.285.889-3.286.89-3.286.891-3.291z" fill="#fff"/><path d="m693.152 115.015-2.778-.816.381-17.979-16.197 7.815-1.896-2.188 10.042-14.92-17.851-2.181-.412-2.866 16.514-7.123-13.838-11.487 1.203-2.634 17.743 2.936-5.431-17.145 2.436-1.565 13.339 12.062 4.7-17.358h2.896l4.7 17.358 13.339-12.062 2.436 1.565-5.431 17.145 17.743-2.936 1.203 2.634-13.838 11.486 16.513 7.124-.412 2.866-17.851 2.181 10.041 14.92-1.896 2.188-16.197-7.815.381 17.98-2.778.815-9.4-15.331-9.401 15.331zm-1.498-22.561 2.152 1.383-.315 14.888 7.783-12.695h2.558l7.783 12.694-.315-14.888 2.152-1.382 13.411 6.471-8.314-12.353 1.062-2.327 14.781-1.807-13.672-5.897-.364-2.531 11.457-9.512-14.691 2.431-1.675-1.933 4.497-14.195-11.045 9.987-2.454-.721-3.892-14.373-3.892 14.373-2.454.721-11.045-9.987 4.497 14.195-1.675 1.933-14.691-2.431 11.458 9.512-.364 2.531-13.673 5.897 14.781 1.807 1.062 2.327-8.314 12.354z" fill="#231f20"/></svg></g><g transform="translate(1394.2028985507247 515.9420289855072) rotate(0.0 220.28985507246375 118.84057971014494) scale(2.893316106681514 2.876694860030377)"><svg width="152.275" height="82.623" viewBox="0 0 152.275 82.623"><path d="m92.181 30.663-.785-3.75-1.839-3.378-2.474-2.95-2.951-2.474-3.379-1.84-3.75-.786 3.75-.785 3.378-1.839 2.95-2.474 2.475-2.95 1.84-3.379.785-3.751.785 3.751 1.839 3.377 2.474 2.951 2.951 2.474 3.379 1.84 3.75.785-3.75.785-3.378 1.84-2.95 2.474-2.475 2.95-1.84 3.379z" fill="#fff"/><path d="m90.713 30.971-.74-3.534-1.662-3.052-2.293-2.734-2.735-2.293-3.053-1.663-3.534-.74v-2.937l3.534-.74 3.052-1.662 2.735-2.293 2.293-2.735 1.663-3.053.74-3.535h2.937l.74 3.534 1.662 3.052 2.293 2.735 2.735 2.293 3.053 1.663 3.534.74v2.937l-3.534.74-3.052 1.662-2.735 2.293-2.293 2.734-1.663 3.053-.74 3.534h-2.937zm-8.265-15.485 2.648 1.476 3.136 2.66 2.642 3.197 1.307 2.4 1.476-2.648 2.66-3.136 3.197-2.642 2.4-1.307-2.648-1.476-3.136-2.66-2.642-3.197-1.307-2.4-1.476 2.648-2.66 3.136-3.197 2.642z" fill="#231f20"/><path d="m136.79 82.316-.785-3.751-1.84-3.377-2.473-2.951-2.951-2.474-3.379-1.84-3.75-.785 3.75-.785 3.378-1.84 2.95-2.474 2.474-2.95 1.841-3.379.785-3.75.785 3.75 1.839 3.378 2.474 2.95 2.95 2.474 3.379 1.84 3.751.786-3.75.785-3.378 1.839-2.951 2.474-2.474 2.95-1.84 3.379z" fill="#fff"/><path d="M138.258 82.623h-2.937l-.74-3.534-1.662-3.052-2.293-2.735-2.735-2.293-3.053-1.663-3.534-.74v-2.937l3.534-.739 3.052-1.662 2.735-2.293 2.293-2.734 1.663-3.053.74-3.534h2.937l.74 3.534 1.662 3.052 2.293 2.735 2.735 2.293 3.053 1.663 3.534.74v2.937l-3.534.74-3.052 1.662-2.735 2.293-2.293 2.735-1.663 3.053-.74 3.534zm-11.201-15.485 2.648 1.476 3.136 2.66 2.642 3.197 1.307 2.4 1.476-2.648 2.66-3.136 3.197-2.642 2.4-1.307-2.648-1.476-3.136-2.66-2.642-3.197-1.307-2.4-1.476 2.648-2.66 3.136-3.197 2.642z" fill="#231f20"/><path d="m10.434 69.011-.524-2.502-1.227-2.253-1.65-1.969-1.969-1.651-2.255-1.228-2.502-.523 2.502-.524 2.254-1.227 1.968-1.651 1.651-1.968 1.228-2.256.524-2.501.524 2.502 1.227 2.253 1.65 1.969 1.969 1.651 2.255 1.228 2.502.524-2.502.523-2.254 1.227-1.968 1.651-1.651 1.968-1.228 2.256z" fill="#fff"/><path d="M11.902 69.319H8.965l-.478-2.286-1.05-1.927-1.47-1.753-1.752-1.47-1.93-1.051L0 60.353v-2.937l2.286-.478 1.928-1.05 1.753-1.47 1.47-1.753 1.051-1.93.478-2.285h2.937l.479 2.286 1.05 1.928 1.469 1.753 1.753 1.47 1.93 1.051 2.285.478v2.937l-2.286.479-1.928 1.05-1.753 1.47-1.47 1.752-1.051 1.93-.478 2.285zM4.984 58.885l1.044.602 2.154 1.836 1.819 2.215.433.796.603-1.044 1.836-2.154 2.215-1.818.796-.434-1.044-.602-2.154-1.837-1.818-2.215-.433-.796-.602 1.044-1.837 2.154-2.215 1.818-.796.434z" fill="#231f20"/></svg></g></svg>